<svg version="1.1" id="Layer_1" xmlns="http://www.w3.org/2000/svg" xmlns:xlink="http://www.w3.org/1999/xlink" x="0px" y="0px"
	 width="100%" viewBox="0 0 736 736" enable-background="new 0 0 736 736" xml:space="preserve">
<path fill="#000000" opacity="1.000000" stroke="none" 
	d="
M737.000000,579.535339 
	C733.293518,578.537781 729.427490,579.360474 725.636719,579.266724 
	C715.821716,579.024170 710.900146,574.152771 710.883057,564.441040 
	C710.864868,554.130859 710.749695,543.819031 710.901978,533.511230 
	C710.959412,529.626770 709.519104,527.963013 705.632446,528.328796 
	C703.984070,528.483948 702.308960,528.356445 700.645996,528.354309 
	C694.181519,528.346069 692.072998,525.319580 693.923218,518.932861 
	C694.456909,517.090881 695.691711,516.730896 697.275696,516.626526 
	C700.593140,516.407898 703.906311,516.089844 707.226929,515.964294 
	C709.706055,515.870422 710.876343,514.711121 710.878845,512.269531 
	C710.881592,509.609497 711.119202,506.928314 710.863892,504.294250 
	C710.459290,500.119507 711.665161,497.913330 716.302246,498.597839 
	C718.734802,498.956940 721.270081,498.230469 723.911865,499.156677 
	C724.936584,502.668579 724.489380,506.354828 724.274902,509.915344 
	C723.982056,514.776550 725.823181,516.652832 730.593201,516.065857 
	C732.394043,515.844299 734.246521,516.042908 736.537720,516.024963 
	C737.000000,520.024536 737.000000,524.049072 736.625000,528.436035 
	C734.609802,528.651001 732.970398,528.388000 731.329285,528.376343 
	C724.649597,528.328918 724.411194,528.636597 724.434204,535.356140 
	C724.458618,542.472107 724.393677,549.588379 724.386230,556.704529 
	C724.374878,567.498474 725.125183,568.112915 736.064758,566.329041 
	C736.385864,566.276672 736.688660,566.112244 737.000000,566.000000 
	C737.000000,570.356873 737.000000,574.713806 737.000000,579.535339 
z"/>
<path fill="#000000" opacity="1.000000" stroke="none" 
	d="
M378.679657,232.178543 
	C371.836060,231.039993 366.052551,227.155777 359.674652,224.786591 
	C335.330658,215.743622 310.434235,209.365982 284.350525,208.819046 
	C272.355225,208.567520 260.350128,209.151703 249.257919,214.728226 
	C237.357330,220.711136 233.008774,230.425705 236.488480,243.300201 
	C237.797333,248.142776 239.221451,253.008286 242.086395,257.135071 
	C244.950226,261.260254 244.817352,263.954681 239.658203,265.540680 
	C238.756470,265.817871 237.964233,266.451233 236.782715,267.108551 
	C228.482040,255.417648 222.193802,243.279404 223.741516,228.657837 
	C225.004318,216.727982 232.765381,209.722122 243.366943,205.603195 
	C257.588562,200.077789 272.379333,200.247498 287.200806,202.104706 
	C298.422699,203.510849 309.544159,205.572052 320.468689,208.589630 
	C321.871582,208.977112 323.366150,209.032852 325.049225,209.275589 
	C328.156158,192.822998 332.401642,176.947998 339.310242,161.921814 
	C344.349396,150.961746 350.427856,140.653473 359.638184,132.555115 
	C371.437805,122.180031 386.072571,121.695244 398.401276,131.338486 
	C410.798767,141.035522 417.827454,154.452621 423.460785,168.638565 
	C434.366241,196.100876 439.063782,224.899689 441.414093,254.204956 
	C442.533203,268.158936 443.217896,282.118713 443.145721,296.100800 
	C442.996094,325.088013 440.424896,353.870453 435.322235,382.422028 
	C434.627594,386.308960 433.176239,387.854095 429.197998,385.427704 
	C430.825775,375.982727 432.787506,366.577057 434.016968,357.076630 
	C437.074951,333.446533 438.442169,309.740082 437.104034,285.880157 
	C436.022491,266.596252 434.321289,247.423492 430.733368,228.425674 
	C426.363373,205.286911 420.288177,182.741180 408.825775,161.943741 
	C404.604614,154.284943 399.644592,147.249252 392.694458,141.804230 
	C383.673798,134.737076 373.904205,134.554337 364.572998,141.258469 
	C351.252441,150.828796 344.435577,164.923813 338.232239,179.395142 
	C333.974060,189.328674 330.918335,199.672272 328.203156,210.392136 
	C336.998901,213.566803 345.848083,216.440262 354.436157,219.952301 
	C362.713135,223.337173 371.361053,226.003052 378.884766,231.587479 
	C378.948273,231.985184 378.679657,232.178543 378.679657,232.178543 
z"/>
<path fill="#000000" opacity="1.000000" stroke="none" 
	d="
M383.424438,494.692871 
	C400.189880,494.676544 416.501373,494.658569 432.812866,494.674408 
	C445.002075,494.686249 450.235992,499.888855 450.232971,511.915039 
	C450.229218,527.061401 450.123260,542.208801 450.271820,557.353699 
	C450.343018,564.614197 450.585968,571.783020 444.451935,576.777954 
	C446.139343,581.813354 451.849701,583.156982 453.138092,588.776123 
	C446.192352,588.957703 439.422852,591.342651 434.116333,584.843567 
	C430.369507,580.254761 425.545471,578.825806 419.563324,579.074036 
	C408.763336,579.522278 397.930298,579.265015 387.112335,579.164795 
	C375.033661,579.052917 369.799042,573.588684 369.844482,561.648438 
	C369.908447,544.838440 369.869202,528.027893 369.834229,511.217743 
	C369.814178,501.580658 373.484253,496.920044 383.424438,494.692871 
M401.503540,507.315155 
	C397.173248,507.321960 392.842804,507.354736 388.512756,507.325653 
	C385.995209,507.308685 384.273102,508.111145 384.272736,510.977081 
	C384.270477,528.297729 384.265198,545.618347 384.261536,562.938965 
	C384.261078,565.036377 384.981873,566.568787 387.369659,566.575928 
	C395.123199,566.599060 402.876862,566.584534 410.882965,566.584534 
	C410.142212,563.619507 407.827148,562.888184 406.506378,561.284119 
	C404.795502,559.206360 404.409882,557.042969 407.505249,556.376770 
	C412.031525,555.402588 416.651123,554.619568 420.703613,558.346802 
	C423.632446,561.040588 426.815613,563.532532 430.168640,565.670105 
	C433.757843,567.958252 436.705017,566.321106 436.482086,562.251343 
	C435.579529,545.773438 436.241241,529.286133 436.067505,512.805054 
	C436.024567,508.732269 434.610687,507.175537 430.481628,507.264801 
	C421.159210,507.466492 411.829254,507.320343 401.503540,507.315155 
z"/>
<path fill="#000000" opacity="1.000000" stroke="none" 
	d="
M279.253296,304.863068 
	C281.760742,304.309052 283.242401,305.974640 284.900024,307.385437 
	C325.670410,342.086121 370.750153,369.264648 422.090973,385.290375 
	C442.158722,391.554413 462.640686,395.997833 483.847565,395.630096 
	C491.024414,395.505646 498.084259,394.354034 504.796204,391.590942 
	C517.823242,386.228088 523.391541,375.582367 520.107422,361.817993 
	C515.713379,343.401276 504.916504,328.637787 492.471497,315.012421 
	C483.659393,305.364563 483.429810,305.651764 473.357147,314.378021 
	C470.294952,317.030884 467.339661,319.940735 462.091461,321.922943 
	C467.829651,314.170288 475.656921,310.384705 480.473999,303.457397 
	C478.543610,299.456665 473.724854,298.065857 471.525269,293.475403 
	C476.900055,294.253601 478.786041,299.020599 482.523071,301.028320 
	C482.847076,300.995056 483.291046,301.083282 483.475800,300.904144 
	C500.184509,284.706573 514.505920,266.900543 520.008667,243.641663 
	C522.446228,233.338547 520.586731,224.014618 510.712646,217.937820 
	C508.475861,216.561234 507.780609,215.077988 508.960815,212.604645 
	C509.804169,210.837219 510.243195,208.876846 511.059692,206.406265 
	C518.379456,208.506699 524.296509,212.043015 528.020386,218.625977 
	C534.607178,230.269852 532.340881,241.816833 527.041016,253.075760 
	C521.319580,265.230347 513.412292,275.962311 504.123169,285.612061 
	C498.263824,291.698883 491.989777,297.386536 486.071381,303.089752 
	C487.943787,306.849640 490.489777,308.520416 492.654358,310.530548 
	C504.677917,321.696381 515.421631,333.940063 523.654907,348.194153 
	C528.357666,356.335968 531.717529,364.922852 531.401978,374.656952 
	C531.084106,384.464752 526.949890,391.987305 518.643311,397.015320 
	C506.454285,404.393372 492.895752,405.666687 479.116272,404.688110 
	C433.696289,401.462494 393.241882,383.291168 353.835297,362.292725 
	C327.315948,348.161530 302.452698,331.435730 278.920685,312.741089 
	C277.606171,311.696777 276.271667,310.699585 276.089874,308.374969 
	C277.288208,306.830597 278.270752,305.846832 279.253296,304.863068 
z"/>
<path fill="#000000" opacity="1.000000" stroke="none" 
	d="
M349.329224,569.950134 
	C349.328278,570.776062 349.329163,571.109253 349.327728,571.442444 
	C349.297119,578.559998 344.575439,581.626160 337.805939,578.968262 
	C335.246826,577.963501 335.827789,575.748901 335.819397,573.861938 
	C335.761444,560.868042 335.784760,547.873840 335.766785,534.879700 
	C335.757843,528.422058 335.716492,528.382324 329.430084,528.370972 
	C324.099213,528.361328 318.758667,528.583374 313.440613,528.326111 
	C309.523376,528.136658 308.184906,529.489990 308.243683,533.462585 
	C308.440796,546.786987 308.121490,560.120422 308.416718,573.441162 
	C308.524139,578.288147 306.603851,579.422607 302.251404,579.259216 
	C298.160431,579.105713 294.701141,579.414978 294.839142,573.477356 
	C295.140961,560.490356 294.794098,547.489197 294.999664,534.498413 
	C295.071136,529.981628 293.543274,528.127930 288.942993,528.340454 
	C283.457581,528.593994 277.944427,528.546204 272.455627,528.324219 
	C268.582855,528.167603 267.136963,529.595764 267.178680,533.523376 
	C267.318542,546.682251 267.217499,559.844116 267.161560,573.004578 
	C267.136017,579.019653 266.913208,578.960938 260.403503,579.228760 
	C255.757675,579.419922 253.464127,578.437012 253.568848,572.993652 
	C253.889267,556.340820 253.617477,539.677307 253.726379,523.018921 
	C253.743729,520.362915 252.226410,516.740662 257.002075,515.997375 
	C263.167694,515.037720 266.146973,516.175476 268.102814,521.194824 
	C273.753113,515.864685 280.676727,515.661743 287.748474,515.909973 
	C294.493378,516.146790 301.697998,514.786377 306.242249,522.271790 
	C315.593964,513.518677 326.853149,515.568176 337.650818,516.446289 
	C345.545105,517.088318 349.264984,521.975952 349.311859,529.975281 
	C349.388947,543.135620 349.330994,556.296631 349.329224,569.950134 
z"/>
<path fill="#000000" opacity="1.000000" stroke="none" 
	d="
M34.208397,559.807007 
	C31.011953,564.165039 29.186821,568.877441 27.526381,573.530518 
	C25.884573,578.131287 23.319334,579.950134 18.635672,579.202637 
	C16.394510,578.844849 13.977310,579.771729 11.645258,578.208313 
	C11.558199,574.616455 13.575173,571.622559 14.937875,568.526184 
	C25.064209,545.516785 35.575565,522.673218 45.403477,499.538574 
	C48.041451,493.328888 52.520626,495.112427 56.876862,494.606567 
	C61.218719,494.102356 62.921215,496.310272 64.500534,499.958954 
	C74.884087,523.947754 85.511925,547.830750 95.995041,571.776672 
	C96.896263,573.835266 98.408134,575.790833 97.956161,578.542786 
	C94.073502,579.830750 90.104897,579.189270 86.190422,578.972656 
	C84.221619,578.863708 83.637589,577.059143 82.968987,575.528564 
	C81.102859,571.256531 79.190224,567.003479 77.406586,562.697083 
	C76.473228,560.443665 75.086121,559.292175 72.511978,559.323792 
	C59.857750,559.479309 47.202129,559.521484 34.208397,559.807007 
M66.740837,546.617859 
	C70.802109,546.530945 69.309105,544.065613 68.511215,542.174927 
	C65.600471,535.277588 62.645988,528.396179 59.551331,521.579956 
	C58.213623,518.633545 57.397476,515.362305 54.713272,512.254272 
	C48.937096,523.520142 44.253643,534.566101 39.338802,546.633606 
	C48.735477,546.633606 57.315479,546.633606 66.740837,546.617859 
z"/>
<path fill="#000000" opacity="1.000000" stroke="none" 
	d="
M279.445465,304.622559 
	C278.270752,305.846832 277.288208,306.830597 276.031158,308.028870 
	C260.623413,321.803589 247.424484,336.868958 238.872818,355.562256 
	C237.129395,359.373260 235.789032,363.329437 235.386429,367.486145 
	C234.433197,377.327942 237.828995,385.029663 246.671387,390.128876 
	C253.457932,394.042542 260.752197,396.112854 268.468353,396.660278 
	C284.844116,397.821991 301.054688,396.680847 317.057739,392.834717 
	C318.739471,392.430511 320.487061,391.424561 322.419373,392.276276 
	C322.359863,394.152802 320.818207,394.120331 319.664886,394.471741 
	C301.264343,400.077850 282.543793,403.686584 263.210052,403.233704 
	C257.197693,403.092865 251.261215,402.069519 245.544724,400.269592 
	C226.793320,394.365326 219.286301,378.771149 225.784073,360.118927 
	C231.479691,343.769409 242.315323,330.971100 253.944275,318.728607 
	C258.870209,313.542755 264.246460,308.784698 269.811646,303.290497 
	C270.922485,302.110352 271.639771,301.471893 272.357025,300.833435 
	C282.139587,293.102814 291.768585,285.170837 302.128601,278.198700 
	C304.201172,276.803864 306.053558,274.917999 308.308289,273.987274 
	C316.367432,270.660614 318.557190,264.427856 318.747437,256.267883 
	C319.022522,244.468918 320.697388,232.751389 322.730103,221.114182 
	C323.082550,219.096466 322.918427,216.758453 325.260803,215.310532 
	C327.855011,217.464722 326.244049,220.031708 325.824951,222.161041 
	C323.092896,236.041504 320.821869,249.971710 320.197296,264.129578 
	C320.170532,264.736420 320.193878,265.345490 320.193878,266.248169 
	C337.401886,254.390366 355.330200,244.596954 373.602356,235.398026 
	C375.224915,234.581146 376.754944,233.580490 378.503815,232.421875 
	C378.679657,232.178543 378.948273,231.985184 379.078186,231.879486 
	C386.117371,228.958237 393.001129,226.078064 399.942749,223.344711 
	C407.370422,220.419937 414.846832,217.618210 422.314484,214.795975 
	C424.562500,213.946381 426.752716,213.051239 427.725403,216.616714 
	C428.613434,219.871857 427.694366,221.545425 424.408081,222.505997 
	C413.548157,225.680298 403.005554,229.769897 392.537048,234.042007 
	C369.198395,243.566345 347.661072,256.464844 325.898163,269.020935 
	C320.137299,272.344666 319.432129,276.681854 318.224518,281.930176 
	C318.018738,279.922577 317.812988,277.914978 317.539795,275.249420 
	C303.684814,283.765717 291.825195,294.292328 279.445465,304.622559 
z"/>
<path fill="#000000" opacity="1.000000" stroke="none" 
	d="
M600.941772,566.681091 
	C609.296570,566.708984 609.296509,566.708984 609.359985,572.501770 
	C609.432617,579.125549 609.412109,579.166138 602.787415,579.173462 
	C590.802551,579.186707 578.817261,579.240662 566.833008,579.151611 
	C556.107544,579.071899 551.733948,574.602844 551.699524,563.874573 
	C551.663757,552.722046 551.648132,541.569336 551.688721,530.416931 
	C551.720337,521.741577 555.771912,516.892151 564.478455,516.318542 
	C575.432068,515.596924 586.448547,515.496094 597.401123,516.411926 
	C605.353210,517.076843 609.263977,521.699158 609.333130,529.602295 
	C609.388489,535.927124 609.114746,542.263916 609.420471,548.574341 
	C609.629822,552.896057 607.765869,554.057373 603.848816,553.955505 
	C593.037537,553.674377 582.221313,553.530151 571.406433,553.490112 
	C569.407898,553.482727 566.380737,552.610291 565.733154,555.236877 
	C564.914795,558.555725 564.622131,562.247070 565.926880,565.544800 
	C566.618530,567.292969 568.883423,566.646057 570.488892,566.653015 
	C580.476196,566.696289 590.463623,566.679321 600.941772,566.681091 
M565.809631,540.595947 
	C566.208313,540.880920 566.603821,541.409729 567.005981,541.414856 
	C575.646851,541.524292 584.288330,541.588318 592.929871,541.626526 
	C594.717651,541.634460 595.694702,540.636414 595.796875,538.860046 
	C595.901978,537.034180 595.895569,535.201233 596.023621,533.377502 
	C596.272522,529.832336 594.863342,528.168152 591.114624,528.309937 
	C586.131653,528.498413 581.133423,528.245605 576.146057,528.364563 
	C564.959290,528.631287 564.939331,525.762146 565.809631,540.595947 
z"/>
<path fill="#000000" opacity="1.000000" stroke="none" 
	d="
M204.000397,579.192627 
	C198.840378,579.189880 194.177094,579.292175 189.520218,579.163086 
	C179.855011,578.895081 175.098297,574.198792 174.974854,564.568115 
	C174.829803,553.251831 174.852371,541.931763 174.942398,530.614502 
	C175.014282,521.577271 179.594345,516.410583 188.592560,516.079712 
	C199.229507,515.688477 209.903580,515.676208 220.539459,516.080750 
	C229.372223,516.416748 234.122589,521.809631 234.189240,530.671448 
	C234.273071,541.822327 234.270294,552.975403 234.151337,564.125916 
	C234.044128,574.173950 228.958099,579.134399 218.980164,579.186462 
	C214.153564,579.211609 209.326752,579.192139 204.000397,579.192627 
M188.337479,552.484619 
	C188.343674,555.817688 188.435501,559.153442 188.330338,562.483032 
	C188.237717,565.415344 189.405014,566.740417 192.433105,566.708557 
	C200.431458,566.624451 208.431976,566.639404 216.430405,566.727661 
	C219.367798,566.760010 220.680038,565.605652 220.654617,562.597473 
	C220.570160,552.598999 220.544022,542.599121 220.626343,532.600830 
	C220.653458,529.306458 219.204956,528.275757 216.056747,528.338196 
	C208.560287,528.486816 201.055588,528.518433 193.560867,528.331116 
	C189.747070,528.235840 188.110275,529.482727 188.276855,533.494446 
	C188.525528,539.483582 188.340134,545.490845 188.337479,552.484619 
z"/>
<path fill="#000000" opacity="1.000000" stroke="none" 
	d="
M629.664551,578.282898 
	C629.153076,577.512268 628.894226,577.053894 628.843201,576.573547 
	C627.825989,566.994751 628.077881,566.711060 637.632141,566.699646 
	C646.631714,566.688904 655.634827,566.545837 664.629272,566.758789 
	C668.506165,566.850586 670.273682,565.600464 669.826843,561.624084 
	C669.678772,560.306702 669.695801,558.952454 669.803040,557.628418 
	C670.069275,554.342957 668.546082,553.237549 665.364197,553.293945 
	C657.700317,553.429749 650.032043,553.373352 642.366089,553.320374 
	C633.067383,553.256226 628.756226,548.859131 628.697021,539.468201 
	C628.676025,536.135132 628.659851,532.801331 628.707703,529.468811 
	C628.816162,521.917847 632.254944,517.852173 639.821167,516.477966 
	C646.772278,515.215515 653.789612,516.259521 660.774841,516.078857 
	C666.269531,515.936707 671.773193,516.077820 677.271667,516.167542 
	C682.842163,516.258362 680.961304,520.525208 681.263550,523.507996 
	C681.582703,526.657043 680.659546,528.471191 676.909424,528.403687 
	C667.079956,528.226562 657.236755,528.605225 647.414978,528.280090 
	C641.334412,528.078735 642.539917,532.019531 642.243469,535.580017 
	C641.896423,539.748718 643.525269,541.175781 647.670837,541.026428 
	C654.827515,540.768555 662.003662,540.836182 669.166077,541.003296 
	C679.135498,541.235901 683.341187,545.634094 683.380981,555.531860 
	C683.395752,559.198303 683.411560,562.865051 683.379761,566.531250 
	C683.318115,573.647461 680.002991,578.405945 672.908691,578.782898 
	C658.634583,579.541199 644.305847,579.800171 629.664551,578.282898 
z"/>
<path fill="#000000" opacity="1.000000" stroke="none" 
	d="
M354.807556,312.851990 
	C349.902832,296.574829 357.988892,282.151123 373.837952,278.298981 
	C387.965271,274.865295 402.079132,284.775665 404.781281,300.026459 
	C406.669647,310.684387 400.012787,322.755249 389.716187,327.343872 
	C378.955353,332.139404 365.411987,328.876190 358.626007,319.710785 
	C357.156738,317.726318 356.156281,315.394775 354.807556,312.851990 
z"/>
<path fill="#000000" opacity="1.000000" stroke="none" 
	d="
M471.623383,545.999878 
	C471.630005,537.336609 471.767670,529.170532 471.585907,521.011475 
	C471.504913,517.376526 472.768066,516.003723 476.456543,515.950989 
	C484.848053,515.830933 485.062256,515.903259 485.067505,524.356689 
	C485.075134,536.684753 485.220917,549.014465 485.051056,561.339966 
	C484.993958,565.482605 486.465973,566.881042 490.580902,566.733032 
	C497.901489,566.469849 505.248016,566.451538 512.565491,566.761047 
	C516.876770,566.943420 517.996887,565.186096 517.947205,561.221985 
	C517.782043,548.062805 517.828308,534.900391 517.868103,521.739502 
	C517.884644,516.276306 518.272827,516.268799 526.200500,515.999023 
	C530.624512,515.848450 531.431885,517.854187 531.398926,521.720215 
	C531.256836,538.378662 531.442078,555.040100 531.263733,571.697815 
	C531.236389,574.257019 533.168213,578.613586 528.553162,578.924927 
	C524.560608,579.194275 519.083374,581.704224 517.238831,574.047241 
	C507.890808,581.270996 497.347717,578.984009 487.201080,579.176086 
	C475.970184,579.388733 471.699554,575.052002 471.655396,563.992798 
	C471.632111,558.161926 471.633881,552.330872 471.623383,545.999878 
z"/>
<path fill="#000000" opacity="1.000000" stroke="none" 
	d="
M134.337860,553.970459 
	C134.345596,566.703003 134.345596,566.703003 146.358612,566.697449 
	C146.857819,566.697205 147.357025,566.696289 147.856232,566.696289 
	C155.535629,566.696472 157.322372,569.033386 155.618759,576.573425 
	C155.140625,578.689636 153.817719,579.148621 151.997757,579.142090 
	C145.675797,579.119263 139.334473,579.402771 133.036819,579.000854 
	C125.249680,578.503723 120.830292,573.491089 120.728798,565.428223 
	C120.596863,554.946533 120.532280,544.458496 120.763290,533.980408 
	C120.856323,529.760803 119.129822,528.225342 115.202179,528.401001 
	C113.708000,528.467896 112.207581,528.397766 110.710030,528.386597 
	C103.859909,528.335510 103.849297,528.094604 103.686073,521.462219 
	C103.582497,517.253662 105.272057,516.022705 109.248993,515.938599 
	C120.543304,515.699768 120.495903,515.569275 120.730415,504.130585 
	C120.767769,502.308594 119.710396,499.484985 122.301842,498.962585 
	C125.974823,498.222198 129.984604,497.672607 133.516953,499.193573 
	C135.152283,499.897766 134.281631,502.560272 134.298660,504.333679 
	C134.409454,515.883423 134.384628,515.883667 145.942566,515.940063 
	C156.931030,515.993652 157.208435,516.364380 154.652664,528.399841 
	C149.515366,528.399841 144.229202,528.504456 138.949707,528.362122 
	C135.578690,528.271240 134.170853,529.472229 134.279343,533.011230 
	C134.488297,539.827209 134.338318,546.654297 134.337860,553.970459 
z"/>
<path fill="#000000" opacity="1.000000" stroke="none" 
	d="
M321.320618,348.254211 
	C325.228577,379.540161 331.644836,409.672089 347.640167,436.939178 
	C352.049225,444.455322 357.046204,451.602051 364.302979,456.617188 
	C376.025726,464.718750 383.825958,463.975342 394.351227,456.041351 
	C397.822662,453.424591 400.794617,450.216736 403.393677,446.754456 
	C406.163574,443.064484 408.337372,445.993652 410.624298,447.150482 
	C413.360168,448.534363 412.061920,450.442291 410.957214,452.142517 
	C406.745667,458.624634 401.724365,464.437073 395.339020,468.807770 
	C383.134216,477.161774 367.203125,474.597717 356.508087,462.929840 
	C346.279022,451.770294 339.950104,438.422180 335.019653,424.364441 
	C326.894226,401.197174 321.798004,377.340942 319.631561,352.876862 
	C319.404846,350.316864 317.870880,347.772034 319.331146,345.100220 
	C321.494202,345.021820 321.022888,346.700500 321.320618,348.254211 
z"/>
<path fill="#000000" opacity="1.000000" stroke="none" 
	d="
M259.012146,291.988525 
	C249.639923,297.002686 240.070312,295.492676 235.490646,288.276978 
	C231.427277,281.874847 232.361221,273.900055 237.789627,268.646698 
	C242.751205,263.845093 251.454727,263.204193 257.175293,267.219177 
	C263.089813,271.370300 265.431061,279.560028 262.492676,286.356934 
	C261.711395,288.164124 260.453979,289.765503 259.207397,291.730988 
	C258.999603,292.000610 259.012146,291.988525 259.012146,291.988525 
z"/>
<path fill="#000000" opacity="1.000000" stroke="none" 
	d="
M480.204102,199.640289 
	C484.515472,192.942444 491.002075,190.256668 497.890625,192.040497 
	C504.256500,193.688980 508.767181,199.492279 509.022827,206.362869 
	C509.237030,212.120789 504.864960,218.621750 499.035461,220.510941 
	C493.344086,222.355347 487.775024,221.972870 483.303925,217.460373 
	C478.339203,212.449692 477.512695,206.493195 480.204102,199.640289 
z"/>
<path fill="#000000" opacity="1.000000" stroke="none" 
	d="
M403.641663,436.859680 
	C401.504669,429.830139 403.212708,424.244873 408.556610,419.940277 
	C413.522461,415.940216 419.974060,415.620575 425.402893,418.797302 
	C431.359833,422.283020 432.971283,427.766632 432.320007,434.203949 
	C431.678040,440.549774 426.703186,445.578949 419.945709,446.849030 
	C413.052490,448.144623 407.632751,444.934998 403.641663,436.859680 
z"/>
<path fill="#000000" opacity="1.000000" stroke="none" 
	d="
M452.603394,206.427429 
	C458.699432,205.099823 464.403381,204.041092 470.206421,203.464508 
	C477.020996,202.787460 477.015747,202.672516 477.253387,209.551224 
	C477.275604,210.194458 477.155487,210.842606 477.060699,211.975647 
	C464.159180,213.023697 451.424622,214.949646 439.048737,218.061646 
	C435.538025,211.602585 435.975525,210.540894 442.500000,208.881943 
	C445.722015,208.062683 448.960999,207.310196 452.603394,206.427429 
z"/>
<path fill="#000000" opacity="1.000000" stroke="none" 
	d="
M421.051544,413.200195 
	C422.619293,408.228882 424.183990,403.667816 425.548676,399.047638 
	C426.148315,397.017487 427.222137,396.260864 429.199707,396.871307 
	C430.947632,397.410797 432.304474,398.414795 431.721954,400.487885 
	C430.164612,406.030426 428.969788,411.704773 426.469086,417.184845 
	C423.994354,416.395782 421.234283,416.986969 421.051544,413.200195 
z"/>
<path fill="#000000" opacity="1.000000" stroke="none" 
	d="
M272.515625,300.597870 
	C271.639771,301.471893 270.922485,302.110352 269.996460,303.046631 
	C264.810883,301.200317 260.870667,297.998016 258.982910,292.359558 
	C259.012146,291.988525 258.999603,292.000610 258.993683,292.007874 
	C261.544403,291.864258 262.663574,286.274597 265.856506,289.671387 
	C268.721802,292.719604 274.058594,294.512177 272.515625,300.597870 
z"/>
<path fill="#000000" opacity="1.000000" stroke="none" 
	d="
M320.078491,326.979492 
	C319.994659,328.800385 320.700745,330.411926 319.064911,331.423401 
	C316.814240,327.563232 316.169983,316.531555 318.336060,311.418884 
	C320.189484,316.867493 318.584290,321.934357 320.078491,326.979492 
z"/>
</svg>