<svg version="1.1" id="Layer_1" xmlns="http://www.w3.org/2000/svg" xmlns:xlink="http://www.w3.org/1999/xlink" x="0px" y="0px"
	 width="100%" viewBox="0 0 1024 1024" enable-background="new 0 0 1024 1024" xml:space="preserve">
<path fill="#FDFEFE" opacity="1.000000" stroke="none" 
	d="
M667.000000,1025.000000 
	C444.666656,1025.000000 222.833328,1025.000000 1.000000,1025.000000 
	C1.000000,683.666687 1.000000,342.333344 1.000000,1.000000 
	C342.333344,1.000000 683.666687,1.000000 1025.000000,1.000000 
	C1025.000000,342.333344 1025.000000,683.666687 1025.000000,1025.000000 
	C905.833313,1025.000000 786.666687,1025.000000 667.000000,1025.000000 
M395.191803,459.180542 
	C395.191803,459.180542 395.232788,459.371185 395.790680,459.179657 
	C395.969208,458.838867 396.147766,458.498108 396.137085,458.140991 
	C396.137085,458.140991 396.181000,458.325775 396.740540,458.137085 
	C396.924866,457.803131 397.109192,457.469208 397.118134,457.109924 
	C397.118134,457.109924 397.142456,457.285431 397.785309,457.053467 
	C402.979492,452.310089 408.173676,447.566711 413.640686,443.729004 
	C413.999298,445.044586 413.977081,446.707855 414.795135,447.604034 
	C416.546448,449.522675 418.732147,451.044800 420.098450,452.995148 
	C419.992065,453.559143 419.610229,454.467407 419.820496,454.635620 
	C423.133301,457.285950 426.518188,459.846710 429.947296,462.344696 
	C429.984650,462.371918 430.828033,461.292603 431.861481,460.959259 
	C432.000946,461.107697 432.140442,461.256134 432.149780,462.165863 
	C433.019928,463.518677 433.594635,465.281647 434.809113,466.156403 
	C441.663391,471.093231 448.671265,475.816803 455.384644,481.417053 
	C455.637421,486.580627 455.890198,491.744171 456.043671,497.659576 
	C456.542847,498.502075 457.042023,499.344574 457.429504,500.823700 
	C457.643829,502.049316 457.858154,503.274963 458.039337,505.417175 
	C461.079224,519.376587 463.518036,533.501770 467.311798,547.253174 
	C472.007294,564.273071 478.332672,580.746155 489.577240,594.798096 
	C494.224060,600.605042 499.617157,605.493286 506.822784,607.885132 
	C522.041748,612.936890 538.538879,603.933228 547.703674,584.517273 
	C545.736572,583.332397 543.769409,582.147461 541.844360,580.987915 
	C539.138184,583.960144 536.713867,586.922485 533.984070,589.569763 
	C521.344055,601.827637 507.968536,601.663147 495.486298,589.208679 
	C487.362823,581.103333 481.564484,571.469788 477.014252,560.115845 
	C476.999725,558.130249 477.199463,556.111572 476.899017,554.170227 
	C476.680847,552.760498 476.174408,550.876221 475.145081,550.209839 
	C472.214508,548.312500 471.412445,546.636475 473.677979,543.516602 
	C474.540039,542.329468 474.116638,538.544067 473.964935,538.525574 
	C467.954071,537.794373 469.213318,533.325439 469.151550,529.321777 
	C467.835724,528.900818 466.448212,528.456909 464.800690,527.414307 
	C464.695618,526.994019 464.590546,526.573669 465.212585,525.724365 
	C465.358032,523.975952 465.828522,522.182556 465.594238,520.486633 
	C464.406403,511.889221 462.888489,503.336151 461.771820,494.730499 
	C460.727325,486.680969 460.884613,486.660553 469.932892,486.958344 
	C471.561951,487.660034 473.253357,488.245850 474.809448,489.083130 
	C482.172791,493.045288 489.499146,497.076111 497.306488,501.705688 
	C506.716064,506.284332 515.995300,511.158020 525.560791,515.383667 
	C549.783386,526.084351 574.608459,534.957458 601.461182,538.980713 
	C602.324890,538.998779 603.188599,539.016846 604.722107,539.300842 
	C606.146057,539.430908 607.569946,539.560974 609.813904,539.934509 
	C616.637329,539.957581 623.482971,540.339722 630.278748,539.917480 
	C639.850952,539.322754 648.907288,536.656067 656.811401,530.962524 
	C666.622986,523.895020 669.887329,510.496765 664.780518,496.534943 
	C657.786621,477.414185 644.419556,462.778870 630.190857,448.846252 
	C629.512634,448.182190 628.190491,448.175690 626.322937,447.604431 
	C639.234253,461.771393 650.065491,475.891296 655.370667,493.314026 
	C659.392395,506.521729 658.308777,517.491394 645.271545,526.169434 
	C640.544617,527.845032 635.817627,529.520569 630.363831,531.103516 
	C629.897888,531.233521 629.431946,531.363464 628.124878,531.368042 
	C624.105408,531.648071 620.085938,531.928162 615.370056,532.017578 
	C614.896118,532.075806 614.422241,532.133972 613.148926,532.003723 
	C596.259583,531.430298 579.827698,528.122742 563.646973,523.495056 
	C541.559448,517.177979 520.497559,508.244843 499.422180,497.660461 
	C471.044403,482.447723 444.339081,464.789001 420.042358,443.576263 
	C418.705322,442.408997 416.742920,441.958069 414.878571,440.454285 
	C427.210632,430.852142 439.542694,421.250031 452.143890,412.305511 
	C453.275116,413.283875 454.406372,414.262268 454.734650,414.546234 
	C456.278748,411.744812 457.640808,409.273590 459.453094,406.299408 
	C491.140991,386.136200 524.223328,368.877350 560.350220,357.998169 
	C563.057800,357.182800 564.423706,356.028229 563.302551,353.034149 
	C563.107910,352.514374 563.741211,351.684570 564.739197,351.331635 
	C566.161072,359.172760 567.908386,366.971619 568.933105,374.864319 
	C570.748535,388.846649 572.124939,402.885986 573.547119,417.788635 
	C575.216919,452.646942 573.020081,487.226135 565.404724,521.632568 
	C567.305969,521.833618 568.571472,521.967468 569.961548,522.114502 
	C570.368286,520.238770 570.849182,518.636169 571.050293,516.999084 
	C573.281311,498.841522 576.464294,480.730133 577.407166,462.503723 
	C578.497437,441.429840 577.604919,420.253387 577.750061,398.448822 
	C577.537842,397.315125 577.325623,396.181458 577.276733,394.650635 
	C577.178772,394.102997 577.080750,393.555328 577.091980,392.085052 
	C575.036438,376.634186 573.454773,361.101624 570.807312,345.752838 
	C567.379883,325.882812 561.442200,306.693878 551.476685,289.021881 
	C545.739380,278.847961 539.077576,269.329712 527.431274,263.631775 
	C522.612488,262.791504 517.793701,261.951263 512.166687,260.999420 
	C504.493103,262.422821 498.082611,266.037079 493.000000,272.000000 
	C493.000000,272.000000 493.025604,272.041046 492.397461,272.237091 
	C488.538422,277.795959 484.679382,283.354858 480.917389,288.924896 
	C480.917389,288.924896 480.870758,288.839081 480.282288,289.146606 
	C470.839630,306.565369 465.134613,325.154480 462.710114,344.754791 
	C468.815979,329.515320 474.921814,314.275879 481.000519,299.007019 
	C481.000519,299.007019 481.036194,299.022308 481.579651,298.676819 
	C485.869629,293.000977 489.704102,286.896942 494.549164,281.742889 
	C503.291565,272.442902 513.751648,268.976837 526.006042,275.004761 
	C526.006042,275.004761 526.028625,274.985687 526.410950,275.531647 
	C529.836182,278.462067 533.261353,281.392517 536.819397,284.193604 
	C536.819397,284.193604 536.644531,284.255371 536.867065,284.915314 
	C540.919678,291.259491 544.972351,297.603638 548.991211,303.983459 
	C548.991211,303.983459 549.040161,303.988037 549.098083,304.727783 
	C551.558777,310.853882 554.414124,316.855957 556.386963,323.135345 
	C559.279358,332.342041 561.540100,341.747162 563.388855,351.480408 
	C562.010376,351.343353 560.426880,350.691956 559.284424,351.147186 
	C544.504517,357.036285 529.320862,362.159851 515.168030,369.314240 
	C495.800751,379.104492 477.229034,390.468384 457.607910,401.001221 
	C457.224060,400.111694 456.508545,399.218109 456.519257,398.333374 
	C456.549866,395.809418 456.875916,393.289032 457.085754,390.767242 
	C456.385620,390.680023 455.685486,390.592773 454.985382,390.505554 
	C454.646637,392.330170 454.335052,394.160309 453.963165,395.978149 
	C453.334259,399.052490 452.667206,402.118988 451.602936,405.716125 
	C437.757080,416.144257 423.911224,426.572418 408.940857,437.464966 
	C408.168854,437.524719 407.396881,437.584473 407.143127,436.931549 
	C409.062653,435.546570 409.557129,434.196442 407.613861,432.243195 
	C405.109558,429.726013 402.882385,426.933105 401.156677,424.966461 
	C398.567291,425.976593 397.254700,426.488617 395.419464,426.377777 
	C395.896423,425.699738 396.424408,425.051636 396.842407,424.338989 
	C400.784760,417.617645 399.743347,409.923584 394.222931,404.839233 
	C389.226288,400.237396 381.561340,399.834015 375.860138,403.872955 
	C370.183380,407.894623 367.990662,415.290771 370.631989,421.507843 
	C373.476746,428.203735 380.608459,431.829224 388.283600,430.105377 
	C390.956696,429.504974 393.432220,428.024933 396.697601,427.331757 
	C395.259796,431.619324 401.867584,438.485291 407.203796,438.473206 
	C400.145966,445.516998 392.837891,452.330353 386.089630,459.659180 
	C376.247101,470.348450 367.303314,481.723877 362.389343,495.711731 
	C355.161194,516.286865 364.666809,532.692139 386.070251,537.104065 
	C397.688110,539.498840 409.299591,539.233521 420.868835,537.680298 
	C430.287170,536.415833 439.579376,534.211670 448.927490,532.424255 
	C448.861389,532.163696 448.795258,531.903076 448.729126,531.642456 
	C434.576080,532.292786 420.423035,532.943115 405.545837,533.273804 
	C405.023926,533.265503 404.502045,533.257202 403.244537,532.981079 
	C396.964539,531.529785 390.041870,531.294434 384.533569,528.383057 
	C371.653625,521.575439 367.665070,510.310822 372.704651,496.310089 
	C375.314606,489.059204 379.541687,482.390350 383.511353,475.094696 
	C384.466949,473.453674 385.422516,471.812683 386.172089,470.135284 
	C386.172089,470.135284 386.202576,470.342224 386.831940,470.096771 
	C389.367401,466.831299 391.902863,463.565857 394.272461,460.211090 
	C394.272461,460.211090 394.280243,460.399292 394.847900,460.239014 
	C395.026123,459.899567 395.204376,459.560120 395.191803,459.180542 
M805.549438,702.950500 
	C805.053955,703.085999 804.558411,703.221497 803.134521,703.174866 
	C792.043396,703.282166 780.952209,703.389465 769.069397,703.252686 
	C764.571228,703.638123 763.794739,706.272766 765.947571,714.496704 
	C780.127625,714.496704 794.408813,714.773804 808.670837,714.372620 
	C815.204834,714.188782 819.004150,709.304077 819.127808,702.655212 
	C819.205078,698.499268 819.217834,694.340454 819.164917,690.184082 
	C819.065430,682.374512 814.642700,677.758667 806.873779,677.553040 
	C800.891479,677.394714 794.902161,677.501343 788.915955,677.493835 
	C776.690918,677.478577 776.440613,677.186584 778.201599,664.912598 
	C778.223511,664.759949 778.361084,664.623901 778.650879,664.125183 
	C779.742737,664.125183 781.042603,664.126770 782.342468,664.125000 
	C792.651489,664.110779 802.960449,664.100159 813.269470,664.077393 
	C815.221130,664.073059 817.676941,664.589172 816.814392,660.262695 
	C816.749695,658.473938 816.684998,656.685120 816.831238,654.175964 
	C816.461670,653.720520 816.093689,652.868469 815.722229,652.866943 
	C802.283386,652.811646 788.830383,652.479736 775.411011,653.001160 
	C768.859680,653.255676 765.222473,658.191284 765.078796,664.833374 
	C764.989075,668.982361 764.946411,673.135681 765.024963,677.284302 
	C765.153748,684.081604 769.733032,688.856995 776.639587,688.961426 
	C786.095947,689.104370 795.557495,688.896729 805.225159,688.976440 
	C805.225159,688.976440 805.449463,688.867554 805.956360,689.453125 
	C806.172119,690.975159 806.387817,692.497131 806.351074,694.796448 
	C806.459290,695.867188 806.567505,696.937988 806.370117,698.782288 
	C806.402832,699.881836 806.435547,700.981323 806.199097,702.487000 
	C806.199097,702.487000 806.075867,702.958496 805.549438,702.950500 
M652.466492,703.189270 
	C651.038086,703.250000 649.609680,703.310669 647.362549,703.185486 
	C646.531799,703.259399 645.700989,703.333313 644.302917,703.201843 
	C643.912598,703.269775 643.522339,703.337769 642.198975,703.205139 
	C636.114807,703.242615 630.030579,703.280090 623.219666,702.967285 
	C622.319275,701.237366 620.687500,699.527344 620.639893,697.774353 
	C620.377930,688.128113 620.501770,678.471436 620.496155,668.818298 
	C620.493042,663.558594 620.495605,658.298889 620.495605,653.012573 
	C615.927246,653.012573 612.035034,653.012573 607.929932,653.012573 
	C607.929932,669.186890 607.897034,684.985596 607.942444,700.783997 
	C607.969421,710.183472 612.711670,714.847290 622.131592,714.837219 
	C626.459778,714.832581 630.841431,715.119751 635.101990,714.550110 
	C640.092346,713.882874 644.970947,712.398254 649.911987,711.332825 
	C651.147278,711.066467 653.493042,710.761780 653.546265,710.957947 
	C655.031799,716.436157 659.719727,713.825073 662.930298,714.866821 
	C666.198364,715.927185 667.116028,714.457153 667.044067,711.586365 
	C666.956909,708.103027 666.828735,704.620728 666.888855,700.232666 
	C666.834717,697.781311 666.780579,695.329895 666.972168,692.269165 
	C666.900635,689.869568 666.829102,687.469910 666.919067,684.136780 
	C666.867126,675.742981 666.815247,667.349243 666.949524,658.257263 
	C666.949524,656.497559 666.949524,654.737854 666.949524,653.005493 
	C662.486633,653.005493 658.588318,653.005493 654.037842,653.005493 
	C654.037842,669.962158 654.037842,686.569336 653.543884,703.191589 
	C653.543884,703.191589 653.101257,703.411499 652.466492,703.189270 
M687.543030,661.216492 
	C686.709473,662.498474 685.167847,663.771362 685.151245,665.063843 
	C684.975342,678.740051 685.042236,692.419434 685.042236,706.579651 
	C686.434631,705.825134 687.268372,705.373291 688.523193,705.423889 
	C688.690430,706.280334 688.857666,707.136841 688.499146,708.405701 
	C689.013916,713.316467 697.487122,719.559631 702.198608,718.761230 
	C706.833130,717.975769 711.531311,717.071167 716.198364,717.088074 
	C723.380249,717.114075 730.575500,717.712280 737.734802,718.388306 
	C743.705872,718.952209 746.931335,716.229370 746.984558,709.995667 
	C746.993042,708.999268 746.753662,707.926025 747.041504,707.019226 
	C748.733276,701.688538 745.306519,700.976379 741.505005,701.065613 
	C736.230225,701.189392 730.960449,701.638184 725.696899,702.054077 
	C724.116211,702.178955 722.563477,702.658020 720.172607,703.115540 
	C718.781921,703.062805 717.391174,703.010010 715.525696,702.443359 
	C714.016846,702.616333 712.507996,702.789307 710.152466,703.112366 
	C708.438232,703.060303 706.724060,703.008179 704.920166,702.229980 
	C704.668945,701.616394 704.449036,700.987732 704.161682,700.391602 
	C700.748169,693.310059 702.826477,690.073486 710.846619,690.042969 
	C716.342224,690.022034 721.857971,689.764099 727.325806,690.155518 
	C730.474609,690.380920 734.580261,690.750977 736.388977,692.747009 
	C738.624268,695.213989 740.153687,695.143372 742.998413,694.322876 
	C742.418030,692.946716 741.949341,691.835327 741.513306,690.801331 
	C742.724060,690.157410 743.840454,689.563721 745.039307,688.044434 
	C745.098816,683.361511 745.158325,678.678650 745.841675,673.554810 
	C746.108704,670.190735 746.757263,666.801025 746.532776,663.470032 
	C746.319031,660.299561 745.164185,657.197021 744.482178,654.051758 
	C744.160461,652.568115 743.976929,651.054504 743.730774,649.554504 
	C742.045288,650.081421 740.359802,650.608337 738.768982,651.105652 
	C736.665649,650.757019 734.462341,650.108215 732.249878,650.075256 
	C723.794434,649.949219 715.325195,649.762695 706.883118,650.119934 
	C702.081909,650.323059 697.263123,651.279297 692.565857,652.380981 
	C689.157898,653.180237 687.306396,657.632385 688.282166,661.269531 
	C688.282166,661.269531 688.343018,661.303345 687.543030,661.216492 
M657.129822,375.778625 
	C652.699524,401.328857 637.117126,420.124329 619.588318,437.735962 
	C615.351013,441.993347 611.074463,446.211609 606.815979,450.447845 
	C608.727112,449.570374 610.552673,448.687195 611.924866,447.341675 
	C624.300049,435.206512 637.226440,423.550842 648.717651,410.622559 
	C658.114563,400.050446 665.359985,387.708038 667.295959,373.132538 
	C669.221558,358.634216 660.457397,345.703918 647.186523,343.309692 
	C646.345703,346.125397 645.504761,348.941559 644.684814,351.687286 
	C653.795593,358.436890 655.296997,360.505524 657.170410,369.804138 
	C657.235779,371.538635 657.301147,373.273132 657.129822,375.778625 
M463.875427,350.400848 
	C474.747620,353.508789 485.619812,356.616730 497.698395,360.069519 
	C496.114014,359.066650 495.619110,358.645020 495.047699,358.407410 
	C473.004578,349.239716 450.333282,342.236359 426.602386,339.115204 
	C411.328766,337.106354 396.053162,336.355774 381.127838,341.490326 
	C366.765808,346.431091 358.861481,357.156311 360.008698,371.092896 
	C360.974152,382.821106 366.033234,393.028320 372.973907,402.255890 
	C375.534088,400.869598 377.794434,399.645630 380.128662,398.381653 
	C378.657379,395.598511 377.186188,392.993042 375.875854,390.309052 
	C364.480591,366.968048 372.386475,350.987061 397.814026,345.934113 
	C411.373505,343.239563 425.014099,343.500244 438.571289,345.564392 
	C446.830505,346.821899 454.943451,349.039978 462.711487,351.568298 
	C461.760162,352.156647 460.097961,352.618347 459.967102,353.352875 
	C458.609863,360.970917 457.499298,368.632904 456.320160,376.282654 
	C456.834259,376.371948 457.348358,376.461243 457.862427,376.550537 
	C458.272095,374.534363 458.672028,372.516113 459.093201,370.502350 
	C460.459564,363.969879 461.833679,357.438995 463.875427,350.400848 
M506.385590,696.388672 
	C506.139526,709.936646 510.556549,714.512573 524.052368,714.577271 
	C535.043030,714.630005 546.042114,714.859863 557.021545,714.511047 
	C562.072449,714.350586 566.255310,715.335266 569.281433,719.418091 
	C574.504578,726.465149 581.656372,724.511780 588.446594,724.378113 
	C588.865723,723.819885 589.284851,723.261597 589.703979,722.703308 
	C585.857544,719.868286 582.011169,717.033203 577.615601,713.793396 
	C584.954529,708.904724 585.769226,703.085815 585.696777,696.616089 
	C585.512268,680.132263 585.697632,663.644531 585.703308,647.158325 
	C585.706970,636.461548 580.476501,631.091980 569.834656,631.049133 
	C553.848206,630.984802 537.861084,631.004639 521.874573,631.070068 
	C511.592682,631.112183 506.333710,636.562622 506.342712,646.960754 
	C506.356659,663.113220 506.371674,679.265747 506.385590,696.388672 
M443.914642,685.500122 
	C443.914642,678.409302 443.914642,671.318420 443.914642,663.992249 
	C452.231110,663.992249 459.886841,664.234375 467.516876,663.896240 
	C471.710693,663.710327 472.509674,665.337097 472.458099,669.103210 
	C472.271149,682.763062 472.379181,696.427124 472.399384,710.089600 
	C472.401489,711.503723 472.560150,712.917542 472.639557,714.222534 
	C476.935974,714.222534 480.724609,714.222534 484.882721,714.222534 
	C484.882721,697.292847 485.084595,680.666687 484.780334,664.049927 
	C484.663605,657.674194 479.425385,653.131104 472.932678,652.787048 
	C468.944153,652.575684 464.926636,652.882812 460.941650,652.638672 
	C453.809235,652.201660 447.380768,653.553650 442.300781,659.557983 
	C437.957306,650.795410 430.177612,653.068481 423.230133,652.730652 
	C415.866730,652.372498 408.659790,652.514954 402.742584,659.599609 
	C402.393372,656.358032 402.208405,654.641052 402.031830,653.002075 
	C397.851715,653.002075 394.086487,653.002075 390.317047,653.002075 
	C390.317047,673.569580 390.317047,693.825928 390.317047,714.146240 
	C394.472656,714.146240 398.364716,714.146240 402.663574,714.146240 
	C402.663574,697.335999 402.663574,680.905151 402.663574,664.099915 
	C411.535156,664.099915 419.998779,664.122009 428.462189,664.088379 
	C431.586792,664.075928 431.769562,666.057434 431.748962,668.442078 
	C431.681335,676.272400 431.700104,684.103455 431.694000,691.934265 
	C431.688171,699.375305 431.692749,706.816284 431.692749,714.234375 
	C436.089233,714.234375 439.858734,714.234375 443.916534,714.234375 
	C443.916534,704.788269 443.916534,695.644165 443.914642,685.500122 
M166.011169,671.379333 
	C159.865982,685.502808 153.720795,699.626282 147.222656,714.560913 
	C150.735428,714.560913 153.536194,714.309753 156.271744,714.624878 
	C159.651474,715.014099 161.281479,713.758301 162.462769,710.572998 
	C164.418854,705.298584 166.943619,700.235046 169.286911,694.951538 
	C182.728867,694.951538 196.054657,694.859985 209.375153,695.083557 
	C210.814178,695.107666 212.826920,696.647278 213.532867,698.019348 
	C215.733414,702.296265 217.349136,706.869934 219.383163,711.239319 
	C219.949036,712.454956 221.104462,714.171753 222.118332,714.265625 
	C225.976120,714.622559 229.886642,714.409546 234.193558,714.409546 
	C233.150116,711.881470 232.433411,710.042908 231.639923,708.238037 
	C221.600418,685.402039 211.503281,662.591125 201.525940,639.728027 
	C197.719620,631.005859 197.835648,631.169922 188.460464,630.904541 
	C184.905060,630.803894 183.523575,632.314087 182.263184,635.185303 
	C177.049454,647.062683 171.663193,658.864258 166.011169,671.379333 
M343.497223,714.520447 
	C347.985138,714.524841 352.478271,714.668579 356.959839,714.502136 
	C364.284882,714.230225 369.231964,709.888306 369.403198,702.858215 
	C369.714996,690.058167 369.715607,677.242920 369.485260,664.440430 
	C369.364899,657.749329 364.319305,652.908691 357.581238,652.794739 
	C346.273773,652.603577 334.954773,652.560730 323.651245,652.858154 
	C316.089172,653.057129 311.737885,657.897949 311.714996,665.366821 
	C311.677795,677.509949 311.663605,689.653870 311.760376,701.796509 
	C311.823090,709.667725 315.703705,713.905518 323.542786,714.327576 
	C329.846405,714.666931 336.178711,714.473694 343.497223,714.520447 
M507.000122,463.725922 
	C521.998718,467.834351 535.265442,460.706909 539.571899,446.226868 
	C543.265198,433.808594 535.655212,419.736176 522.958618,415.505310 
	C510.070557,411.210632 496.164368,417.946991 491.356018,430.813965 
	C486.391418,444.099121 492.642761,457.755005 507.000122,463.725922 
M836.000549,664.083191 
	C839.606506,664.083191 843.212463,664.083191 847.395874,664.083191 
	C847.395874,666.555176 847.391907,668.345642 847.396484,670.136108 
	C847.423706,680.788757 847.369995,691.442566 847.511353,702.093750 
	C847.601868,708.914917 851.570618,713.875549 858.167297,714.345032 
	C865.723877,714.882751 873.348083,714.469666 881.054321,714.469666 
	C881.054321,710.408875 881.054321,706.890808 881.054321,703.134277 
	C875.445312,703.134277 870.287292,702.965027 865.146606,703.190552 
	C861.379883,703.355835 859.738159,702.277222 859.987976,698.163635 
	C860.340637,692.358093 860.109314,686.516785 860.117432,680.690735 
	C860.125000,675.264771 860.119080,669.838745 860.119080,664.066711 
	C867.485779,664.066711 874.100952,664.066711 881.018860,664.066711 
	C881.018860,660.140503 881.018860,656.585571 881.018860,652.709106 
	C876.056885,652.709106 871.424683,652.709656 866.792542,652.708984 
	C860.103394,652.707947 860.097473,652.707581 860.070740,645.800659 
	C860.056885,642.219910 860.068298,638.639099 860.068298,635.189270 
	C855.508850,635.189270 851.592529,635.189270 847.133972,635.189270 
	C847.133972,641.088867 847.133972,646.663025 847.133972,652.770874 
	C841.318176,652.770874 836.051636,652.770874 830.549927,652.770874 
	C830.549927,656.751343 830.549927,660.168579 830.549927,663.877869 
	C832.226318,663.953613 833.684509,664.019470 836.000549,664.083191 
M287.946106,714.528381 
	C289.020508,713.721680 290.887848,713.027466 291.021271,712.087280 
	C291.428833,709.214844 291.169281,706.247803 291.169281,702.909668 
	C283.799591,702.909668 277.042694,702.909668 270.235901,702.909668 
	C270.235901,689.772949 270.235901,677.063049 270.235901,663.944702 
	C277.321014,663.944702 284.092316,663.944702 290.838745,663.944702 
	C290.838745,659.974670 290.838745,656.420532 290.838745,652.511719 
	C283.737244,652.511719 276.994324,652.511719 269.880829,652.511719 
	C269.880829,646.549438 269.880829,640.943115 269.880829,635.234192 
	C265.464661,635.234192 261.438843,635.234192 257.044312,635.234192 
	C257.044312,641.218323 257.044312,646.834656 257.044312,652.845215 
	C251.403168,652.845215 246.130798,652.845215 240.735413,652.845215 
	C240.735413,656.777161 240.735413,660.290649 240.735413,664.277893 
	C246.391022,664.277893 251.644531,664.277893 257.136169,664.277893 
	C257.136169,676.898193 257.064301,689.040527 257.161102,701.181580 
	C257.227020,709.447083 261.324432,713.866455 269.576385,714.344666 
	C275.383484,714.681152 281.221313,714.486694 287.946106,714.528381 
M620.051880,331.476471 
	C614.235779,337.652802 613.284424,345.400360 617.637085,351.141418 
	C622.168823,357.118652 630.362122,358.851776 636.802246,355.195496 
	C644.089783,351.058258 646.517273,342.145538 642.300842,335.007874 
	C637.956604,327.653931 629.161621,326.030762 620.051880,331.476471 
M567.404968,572.490112 
	C567.643738,571.020508 568.055237,569.555176 568.091064,568.080627 
	C568.238831,562.000916 565.012085,556.914917 559.658081,554.568970 
	C553.870972,552.033264 547.986450,552.996033 543.579651,557.415710 
	C539.164124,561.844177 537.931396,567.179321 540.176270,573.004761 
	C542.322815,578.575073 546.541565,582.056396 552.553040,582.437378 
	C559.424194,582.872986 564.297241,579.527100 567.404968,572.490112 
M577.967651,345.614044 
	C576.433228,346.030884 574.898743,346.447754 573.184448,346.913483 
	C573.608826,349.351593 573.938538,351.245789 574.266724,353.131317 
	C587.294922,351.087799 600.002930,349.094513 612.763550,347.092987 
	C612.534058,344.679382 612.302002,342.238220 612.040405,339.486969 
	C609.477539,339.658234 606.985474,339.565826 604.602112,340.030518 
	C595.961365,341.715271 587.357056,343.586853 577.967651,345.614044 
M561.622925,536.848145 
	C560.124512,541.491882 558.626099,546.135559 557.099426,550.866821 
	C559.141602,551.623352 560.660522,552.186096 562.533142,552.879883 
	C564.292297,546.720337 566.003052,540.729980 567.746338,534.625854 
	C564.924805,533.349121 562.403809,531.214905 561.622925,536.848145 
M455.038025,447.474548 
	C455.038025,438.854614 455.038025,430.234680 455.038025,421.614777 
	C453.643799,421.890686 453.163727,422.240021 453.161407,422.592468 
	C453.078186,435.205017 452.994446,447.818176 453.077179,460.430115 
	C453.084106,461.486389 454.252716,462.535065 455.043457,463.858063 
	C455.043457,458.246307 455.043457,453.354736 455.038025,447.474548 
M602.379639,454.176361 
	C602.614380,453.927795 602.849121,453.679230 603.083862,453.430664 
	C602.860168,453.600708 602.636414,453.770782 602.379639,454.176361 
M600.474121,456.493164 
	C600.474121,456.493164 600.512939,456.491943 600.474121,456.493164 
z"/>
<path fill="#0D51D9" opacity="1.000000" stroke="none" 
	d="
M506.385925,695.903442 
	C506.371674,679.265747 506.356659,663.113220 506.342712,646.960754 
	C506.333710,636.562622 511.592682,631.112183 521.874573,631.070068 
	C537.861084,631.004639 553.848206,630.984802 569.834656,631.049133 
	C580.476501,631.091980 585.706970,636.461548 585.703308,647.158325 
	C585.697632,663.644531 585.512268,680.132263 585.696777,696.616089 
	C585.769226,703.085815 584.954529,708.904724 577.615601,713.793396 
	C582.011169,717.033203 585.857544,719.868286 589.703979,722.703308 
	C589.284851,723.261597 588.865723,723.819885 588.446594,724.378113 
	C581.656372,724.511780 574.504578,726.465149 569.281433,719.418091 
	C566.255310,715.335266 562.072449,714.350586 557.021545,714.511047 
	C546.042114,714.859863 535.043030,714.630005 524.052368,714.577271 
	C510.556549,714.512573 506.139526,709.936646 506.385925,695.903442 
M568.723389,702.978333 
	C571.318054,703.262512 572.808960,702.469116 572.795166,699.492126 
	C572.713440,681.857788 572.700317,664.223083 572.714539,646.588501 
	C572.716797,643.816589 571.513428,642.854248 568.770325,642.870300 
	C553.629150,642.958862 538.486084,642.837402 523.347900,643.068054 
	C522.110779,643.086853 519.857239,645.188232 519.842529,646.344482 
	C519.615112,664.144470 519.632019,681.948669 519.798767,699.750000 
	C519.808838,700.831909 521.523804,702.802002 522.488953,702.829407 
	C531.054749,703.072754 539.630310,702.970886 549.624573,702.970886 
	C546.684937,700.320862 544.545837,698.770386 542.966614,696.776550 
	C542.363831,696.015442 542.897766,693.124878 543.161255,693.090210 
	C547.618713,692.504822 552.075867,690.640930 556.305969,694.616394 
	C559.750183,697.853271 564.022949,700.208435 568.723389,702.978333 
z"/>
<path fill="#0A1536" opacity="1.000000" stroke="none" 
	d="
M443.915588,686.000061 
	C443.916534,695.644165 443.916534,704.788269 443.916534,714.234375 
	C439.858734,714.234375 436.089233,714.234375 431.692749,714.234375 
	C431.692749,706.816284 431.688171,699.375305 431.694000,691.934265 
	C431.700104,684.103455 431.681335,676.272400 431.748962,668.442078 
	C431.769562,666.057434 431.586792,664.075928 428.462189,664.088379 
	C419.998779,664.122009 411.535156,664.099915 402.663574,664.099915 
	C402.663574,680.905151 402.663574,697.335999 402.663574,714.146240 
	C398.364716,714.146240 394.472656,714.146240 390.317047,714.146240 
	C390.317047,693.825928 390.317047,673.569580 390.317047,653.002075 
	C394.086487,653.002075 397.851715,653.002075 402.031830,653.002075 
	C402.208405,654.641052 402.393372,656.358032 402.742584,659.599609 
	C408.659790,652.514954 415.866730,652.372498 423.230133,652.730652 
	C430.177612,653.068481 437.957306,650.795410 442.300781,659.557983 
	C447.380768,653.553650 453.809235,652.201660 460.941650,652.638672 
	C464.926636,652.882812 468.944153,652.575684 472.932678,652.787048 
	C479.425385,653.131104 484.663605,657.674194 484.780334,664.049927 
	C485.084595,680.666687 484.882721,697.292847 484.882721,714.222534 
	C480.724609,714.222534 476.935974,714.222534 472.639557,714.222534 
	C472.560150,712.917542 472.401489,711.503723 472.399384,710.089600 
	C472.379181,696.427124 472.271149,682.763062 472.458099,669.103210 
	C472.509674,665.337097 471.710693,663.710327 467.516876,663.896240 
	C459.886841,664.234375 452.231110,663.992249 443.914642,663.992249 
	C443.914642,671.318420 443.914642,678.409302 443.915588,686.000061 
z"/>
<path fill="#0A1536" opacity="1.000000" stroke="none" 
	d="
M166.175720,671.036499 
	C171.663193,658.864258 177.049454,647.062683 182.263184,635.185303 
	C183.523575,632.314087 184.905060,630.803894 188.460464,630.904541 
	C197.835648,631.169922 197.719620,631.005859 201.525940,639.728027 
	C211.503281,662.591125 221.600418,685.402039 231.639923,708.238037 
	C232.433411,710.042908 233.150116,711.881470 234.193558,714.409546 
	C229.886642,714.409546 225.976120,714.622559 222.118332,714.265625 
	C221.104462,714.171753 219.949036,712.454956 219.383163,711.239319 
	C217.349136,706.869934 215.733414,702.296265 213.532867,698.019348 
	C212.826920,696.647278 210.814178,695.107666 209.375153,695.083557 
	C196.054657,694.859985 182.728867,694.951538 169.286911,694.951538 
	C166.943619,700.235046 164.418854,705.298584 162.462769,710.572998 
	C161.281479,713.758301 159.651474,715.014099 156.271744,714.624878 
	C153.536194,714.309753 150.735428,714.560913 147.222656,714.560913 
	C153.720795,699.626282 159.865982,685.502808 166.175720,671.036499 
M176.955017,682.988525 
	C186.833939,682.988525 196.712845,682.988525 207.191208,682.988525 
	C201.681747,670.372192 196.488556,658.480164 190.873978,645.623047 
	C185.395111,657.929749 180.390091,669.101501 175.502960,680.324524 
	C175.209000,680.999634 175.855408,682.084167 176.955017,682.988525 
z"/>
<path fill="#0A1536" opacity="1.000000" stroke="none" 
	d="
M342.997742,714.518616 
	C336.178711,714.473694 329.846405,714.666931 323.542786,714.327576 
	C315.703705,713.905518 311.823090,709.667725 311.760376,701.796509 
	C311.663605,689.653870 311.677795,677.509949 311.714996,665.366821 
	C311.737885,657.897949 316.089172,653.057129 323.651245,652.858154 
	C334.954773,652.560730 346.273773,652.603577 357.581238,652.794739 
	C364.319305,652.908691 369.364899,657.749329 369.485260,664.440430 
	C369.715607,677.242920 369.714996,690.058167 369.403198,702.858215 
	C369.231964,709.888306 364.284882,714.230225 356.959839,714.502136 
	C352.478271,714.668579 347.985138,714.524841 342.997742,714.518616 
M324.005219,688.495972 
	C324.005219,693.272705 324.005219,698.049500 324.005219,702.775391 
	C335.322754,702.775391 346.027588,702.775391 356.522705,702.775391 
	C356.522705,689.636475 356.522705,676.909363 356.522705,664.298950 
	C345.520569,664.298950 334.923431,664.298950 324.002228,664.298950 
	C324.002228,672.226074 324.002228,679.861511 324.005219,688.495972 
z"/>
<path fill="#0D51D9" opacity="1.000000" stroke="none" 
	d="
M716.000488,702.957275 
	C717.391174,703.010010 718.781921,703.062805 721.020752,703.153687 
	C729.458069,703.191895 737.047363,703.191895 744.591431,703.191895 
	C744.591431,707.326782 744.591431,710.716614 744.591431,714.312500 
	C730.214111,714.312500 716.228027,714.165955 702.247620,714.383911 
	C696.577942,714.472290 692.243042,712.587524 689.024902,707.993286 
	C688.857666,707.136841 688.690430,706.280334 688.380127,704.714233 
	C688.272400,689.770813 688.307739,675.537048 688.343018,661.303345 
	C688.343018,661.303345 688.282166,661.269531 688.540161,661.008362 
	C691.367554,655.408875 695.648254,652.805847 701.538635,652.810303 
	C711.860229,652.818054 722.183289,652.737732 732.502869,652.891418 
	C740.117798,653.004761 744.756836,657.848267 744.991516,665.526001 
	C745.077759,668.348877 745.143066,671.172485 745.217896,673.995728 
	C745.158325,678.678650 745.098816,683.361511 744.535828,688.555420 
	C729.781677,689.066467 715.531006,689.066467 700.824097,689.066467 
	C700.824097,693.054565 700.989014,696.364075 700.778625,699.649536 
	C700.559753,703.067444 702.171509,703.683289 705.009827,702.956116 
	C706.724060,703.008179 708.438232,703.060303 710.984009,703.141968 
	C713.210571,703.100098 714.605530,703.028687 716.000488,702.957275 
M701.038818,677.961304 
	C701.038818,677.961304 701.049133,678.016846 701.413574,678.711853 
	C711.890076,678.743896 722.366882,678.813354 732.842041,678.709473 
	C733.434204,678.703552 734.573547,677.218079 734.503479,676.516479 
	C734.119568,672.670776 733.437439,668.854858 732.675171,664.802368 
	C732.675171,664.802368 732.767151,664.526550 732.649231,663.700500 
	C731.232788,663.138916 729.825500,662.120483 728.398315,662.091736 
	C720.593811,661.934387 712.782227,661.928162 704.978882,662.114136 
	C703.700195,662.144653 702.450378,663.388306 700.979370,664.706543 
	C700.847839,665.131958 700.716309,665.557312 699.981873,666.161438 
	C700.189819,667.455444 700.397766,668.749512 700.772583,670.764771 
	C700.728638,671.499878 700.684692,672.234985 700.012390,673.157349 
	C700.335999,674.755371 700.659607,676.353455 701.038818,677.961304 
z"/>
<path fill="#0A1536" opacity="1.000000" stroke="none" 
	d="
M506.636230,463.562012 
	C492.642761,457.755005 486.391418,444.099121 491.356018,430.813965 
	C496.164368,417.946991 510.070557,411.210632 522.958618,415.505310 
	C535.655212,419.736176 543.265198,433.808594 539.571899,446.226868 
	C535.265442,460.706909 521.998718,467.834351 506.636230,463.562012 
z"/>
<path fill="#0D51D9" opacity="1.000000" stroke="none" 
	d="
M835.571655,664.084229 
	C833.684509,664.019470 832.226318,663.953613 830.549927,663.877869 
	C830.549927,660.168579 830.549927,656.751343 830.549927,652.770874 
	C836.051636,652.770874 841.318176,652.770874 847.133972,652.770874 
	C847.133972,646.663025 847.133972,641.088867 847.133972,635.189270 
	C851.592529,635.189270 855.508850,635.189270 860.068298,635.189270 
	C860.068298,638.639099 860.056885,642.219910 860.070740,645.800659 
	C860.097473,652.707581 860.103394,652.707947 866.792542,652.708984 
	C871.424683,652.709656 876.056885,652.709106 881.018860,652.709106 
	C881.018860,656.585571 881.018860,660.140503 881.018860,664.066711 
	C874.100952,664.066711 867.485779,664.066711 860.119080,664.066711 
	C860.119080,669.838745 860.125000,675.264771 860.117432,680.690735 
	C860.109314,686.516785 860.340637,692.358093 859.987976,698.163635 
	C859.738159,702.277222 861.379883,703.355835 865.146606,703.190552 
	C870.287292,702.965027 875.445312,703.134277 881.054321,703.134277 
	C881.054321,706.890808 881.054321,710.408875 881.054321,714.469666 
	C873.348083,714.469666 865.723877,714.882751 858.167297,714.345032 
	C851.570618,713.875549 847.601868,708.914917 847.511353,702.093750 
	C847.369995,691.442566 847.423706,680.788757 847.396484,670.136108 
	C847.391907,668.345642 847.395874,666.555176 847.395874,664.083191 
	C843.212463,664.083191 839.606506,664.083191 835.571655,664.084229 
z"/>
<path fill="#0A1536" opacity="1.000000" stroke="none" 
	d="
M287.495789,714.528870 
	C281.221313,714.486694 275.383484,714.681152 269.576385,714.344666 
	C261.324432,713.866455 257.227020,709.447083 257.161102,701.181580 
	C257.064301,689.040527 257.136169,676.898193 257.136169,664.277893 
	C251.644531,664.277893 246.391022,664.277893 240.735413,664.277893 
	C240.735413,660.290649 240.735413,656.777161 240.735413,652.845215 
	C246.130798,652.845215 251.403168,652.845215 257.044312,652.845215 
	C257.044312,646.834656 257.044312,641.218323 257.044312,635.234192 
	C261.438843,635.234192 265.464661,635.234192 269.880829,635.234192 
	C269.880829,640.943115 269.880829,646.549438 269.880829,652.511719 
	C276.994324,652.511719 283.737244,652.511719 290.838745,652.511719 
	C290.838745,656.420532 290.838745,659.974670 290.838745,663.944702 
	C284.092316,663.944702 277.321014,663.944702 270.235901,663.944702 
	C270.235901,677.063049 270.235901,689.772949 270.235901,702.909668 
	C277.042694,702.909668 283.799591,702.909668 291.169281,702.909668 
	C291.169281,706.247803 291.428833,709.214844 291.021271,712.087280 
	C290.887848,713.027466 289.020508,713.721680 287.495789,714.528870 
z"/>
<path fill="#0D51D9" opacity="1.000000" stroke="none" 
	d="
M769.861084,703.496704 
	C780.952209,703.389465 792.043396,703.282166 803.602234,703.491150 
	C804.738586,703.524414 805.407227,703.241455 806.075867,702.958496 
	C806.075867,702.958496 806.199097,702.487000 806.619080,702.177734 
	C806.917969,700.581909 806.796814,699.295288 806.675720,698.008728 
	C806.567505,696.937988 806.459290,695.867188 806.759277,694.300537 
	C806.594849,692.158997 806.022156,690.513245 805.449463,688.867554 
	C805.449463,688.867554 805.225159,688.976440 804.795532,688.651794 
	C797.555359,688.220154 790.727844,687.758728 783.937927,688.083313 
	C771.566528,688.674561 764.856750,684.414001 765.893555,669.808350 
	C766.658264,659.035217 769.976257,653.795105 781.847107,653.964966 
	C791.666077,654.105530 801.489075,653.952881 811.309326,654.039001 
	C813.082031,654.054504 814.850098,654.597107 816.620300,654.896362 
	C816.684998,656.685120 816.749695,658.473938 816.359375,660.871826 
	C804.855774,661.701416 793.807373,662.052795 782.758423,662.073059 
	C778.757202,662.080444 776.269226,663.274719 776.021484,667.497375 
	C775.894897,669.654541 776.027893,671.825928 776.008789,673.990540 
	C775.978333,677.429260 777.348450,679.133423 781.099426,679.047119 
	C789.088745,678.863159 797.086182,678.917480 805.078552,679.014587 
	C813.281616,679.114258 818.004822,683.891174 818.017639,691.878235 
	C818.021912,694.542786 817.814941,697.226685 818.062622,699.868225 
	C818.863831,708.412354 812.798401,713.080872 805.060547,713.029846 
	C794.402954,712.959595 783.740173,713.173462 773.089722,712.888367 
	C770.786682,712.826660 767.578674,711.792603 766.451355,710.098816 
	C764.342224,706.930115 767.826477,705.297729 769.861084,703.496704 
z"/>
<path fill="#0D51D9" opacity="1.000000" stroke="none" 
	d="
M644.870239,703.407227 
	C645.700989,703.333313 646.531799,703.259399 647.994690,703.478027 
	C650.118286,703.650879 651.609802,703.531189 653.101257,703.411499 
	C653.101257,703.411499 653.543884,703.191589 654.086060,703.083740 
	C655.072266,702.359070 655.900513,701.744568 655.904175,701.125305 
	C655.986267,687.212463 656.094543,673.297546 655.914551,659.386719 
	C655.861084,655.246582 657.294861,654.015747 661.398926,653.844116 
	C665.560669,653.670105 665.703430,656.518860 666.763306,658.955444 
	C666.815247,667.349243 666.867126,675.742981 666.606140,684.892334 
	C666.437622,688.058167 666.582031,690.468323 666.726440,692.878540 
	C666.780579,695.329895 666.834717,697.781311 666.578674,700.947021 
	C666.268494,705.328491 666.268494,708.995605 666.268494,711.796143 
	C659.046021,715.244995 655.829712,711.519775 653.115112,706.252625 
	C647.003540,713.288696 639.631104,713.512695 631.998718,713.047791 
	C628.347839,712.825439 624.672363,713.022278 621.008118,713.001770 
	C613.242188,712.958130 607.895325,706.497070 609.229980,698.780701 
	C609.397400,697.812683 609.781616,696.848267 609.765137,695.887390 
	C609.549255,683.321045 609.357544,670.753296 608.970276,658.191772 
	C608.867737,654.866028 610.119995,654.030579 613.300232,653.882324 
	C617.903503,653.667847 619.067383,655.850159 619.039429,659.877747 
	C618.951416,672.535645 618.867798,685.197388 619.131287,697.850403 
	C619.176392,700.016602 620.934265,702.147217 621.900879,704.294312 
	C622.582703,703.968750 623.264587,703.643127 623.946411,703.317566 
	C630.030579,703.280090 636.114807,703.242615 642.804565,703.461548 
	C643.896851,703.614441 644.383545,703.510864 644.870239,703.407227 
z"/>
<path fill="#0A1536" opacity="1.000000" stroke="none" 
	d="
M463.122101,350.826599 
	C454.943451,349.039978 446.830505,346.821899 438.571289,345.564392 
	C425.014099,343.500244 411.373505,343.239563 397.814026,345.934113 
	C372.386475,350.987061 364.480591,366.968048 375.875854,390.309052 
	C377.186188,392.993042 378.657379,395.598511 380.128662,398.381653 
	C377.794434,399.645630 375.534088,400.869598 372.973907,402.255890 
	C366.033234,393.028320 360.974152,382.821106 360.008698,371.092896 
	C358.861481,357.156311 366.765808,346.431091 381.127838,341.490326 
	C396.053162,336.355774 411.328766,337.106354 426.602386,339.115204 
	C450.333282,342.236359 473.004578,349.239716 495.047699,358.407410 
	C495.619110,358.645020 496.114014,359.066650 497.698395,360.069519 
	C485.619812,356.616730 474.747620,353.508789 463.482788,350.671417 
	C463.090118,350.941986 463.122101,350.826569 463.122101,350.826599 
z"/>
<path fill="#154B99" opacity="1.000000" stroke="none" 
	d="
M604.052307,539.034912 
	C603.188599,539.016846 602.324890,538.998779 601.115784,538.492493 
	C596.523621,537.002380 592.268372,536.035034 588.032349,534.989563 
	C582.863831,533.713867 577.711487,532.372559 572.552185,531.059631 
	C572.506409,530.621460 572.460571,530.183289 572.414795,529.745178 
	C573.781555,529.259460 575.214111,528.232666 576.502747,528.389404 
	C580.406006,528.864136 584.223389,530.133362 588.128845,530.482849 
	C596.717529,531.251404 605.339783,531.645386 613.948303,532.192139 
	C614.422241,532.133972 614.896118,532.075806 616.036072,532.358276 
	C620.790039,532.297180 624.878052,531.895325 628.966003,531.493408 
	C629.431946,531.363464 629.897888,531.233521 630.985779,531.366333 
	C636.820007,530.821289 642.264587,530.607544 645.992859,526.004456 
	C658.308777,517.491394 659.392395,506.521729 655.370667,493.314026 
	C650.065491,475.891296 639.234253,461.771393 626.322937,447.604431 
	C628.190491,448.175690 629.512634,448.182190 630.190857,448.846252 
	C644.419556,462.778870 657.786621,477.414185 664.780518,496.534943 
	C669.887329,510.496765 666.622986,523.895020 656.811401,530.962524 
	C648.907288,536.656067 639.850952,539.322754 630.278748,539.917480 
	C623.482971,540.339722 616.637329,539.957581 609.320435,539.487366 
	C607.396973,538.402710 605.966980,537.765137 604.536926,537.127625 
	C604.375427,537.763367 604.213867,538.399109 604.052307,539.034912 
z"/>
<path fill="#2155C0" opacity="1.000000" stroke="none" 
	d="
M383.038147,475.458557 
	C379.541687,482.390350 375.314606,489.059204 372.704651,496.310089 
	C367.665070,510.310822 371.653625,521.575439 384.533569,528.383057 
	C390.041870,531.294434 396.964539,531.529785 403.302856,533.355591 
	C397.963043,533.752136 392.807861,533.576782 387.688751,530.821899 
	C384.866547,529.303101 380.735199,530.216858 377.194061,530.033875 
	C383.911774,537.045715 410.934631,539.244995 422.293945,535.668457 
	C417.802216,535.086792 412.036102,534.340149 406.269989,533.593445 
	C420.423035,532.943115 434.576080,532.292786 448.729126,531.642456 
	C448.795258,531.903076 448.861389,532.163696 448.927490,532.424255 
	C439.579376,534.211670 430.287170,536.415833 420.868835,537.680298 
	C409.299591,539.233521 397.688110,539.498840 386.070251,537.104065 
	C364.666809,532.692139 355.161194,516.286865 362.389343,495.711731 
	C367.303314,481.723877 376.247101,470.348450 386.089630,459.659180 
	C392.837891,452.330353 400.145966,445.516998 406.897583,438.105774 
	C406.591400,437.738342 406.624878,437.644257 406.624878,437.644257 
	C407.396881,437.584473 408.168854,437.524719 409.854736,437.216156 
	C411.997559,436.792267 413.226440,436.617188 416.102020,436.207489 
	C413.847961,438.635803 412.587189,439.950897 411.374115,441.308533 
	C406.622040,446.626862 401.885040,451.958618 397.142456,457.285431 
	C397.142456,457.285431 397.118134,457.109924 396.908264,457.194794 
	C396.525909,457.628357 396.353455,457.977051 396.180969,458.325775 
	C396.181000,458.325775 396.137085,458.140991 395.930664,458.221649 
	C395.560394,458.658600 395.396576,459.014893 395.232788,459.371185 
	C395.232788,459.371185 395.191803,459.180542 394.975281,459.250244 
	C394.599243,459.679749 394.439758,460.039520 394.280273,460.399292 
	C394.280243,460.399292 394.272461,460.211090 393.984131,460.255859 
	C391.198059,463.647797 388.700317,466.994995 386.202576,470.342224 
	C386.202576,470.342224 386.172089,470.135284 385.937683,470.229858 
	C384.814911,472.035828 383.926514,473.747192 383.038147,475.458557 
z"/>
<path fill="#133F86" opacity="1.000000" stroke="none" 
	d="
M476.978912,561.039734 
	C481.564484,571.469788 487.362823,581.103333 495.486298,589.208679 
	C507.968536,601.663147 521.344055,601.827637 533.984070,589.569763 
	C536.713867,586.922485 539.138184,583.960144 541.844360,580.987915 
	C543.769409,582.147461 545.736572,583.332397 547.703613,584.520142 
	C538.538879,603.933228 522.041748,612.936890 506.822784,607.885132 
	C499.617157,605.493286 494.224060,600.605042 489.577240,594.798096 
	C478.332672,580.746155 472.007294,564.273071 467.311798,547.253174 
	C463.518036,533.501770 461.079224,519.376587 458.057129,504.646545 
	C457.897034,502.646332 457.719116,501.416687 457.541199,500.187073 
	C457.042023,499.344574 456.542847,498.502075 456.408936,497.292755 
	C457.194214,496.901855 457.614166,496.877747 458.098572,496.910522 
	C458.163025,496.967346 458.092377,497.124023 458.057861,497.362427 
	C458.216980,498.019318 458.410583,498.437836 458.740234,499.261353 
	C460.745972,508.495392 462.615723,517.324402 464.485474,526.153381 
	C464.590546,526.573669 464.695618,526.994019 464.897888,528.097534 
	C468.989716,539.533752 472.984314,550.286743 476.978912,561.039734 
z"/>
<path fill="#0D51D9" opacity="1.000000" stroke="none" 
	d="
M512.974915,261.111023 
	C517.793701,261.951263 522.612488,262.791504 527.754028,264.195190 
	C528.638550,265.558167 529.041504,266.572052 529.786682,267.124054 
	C537.254944,272.656342 544.209412,278.746368 548.515564,287.123199 
	C551.848694,293.607147 558.092773,299.015045 556.527588,307.540131 
	C556.369690,308.400238 558.005554,309.601898 558.831909,310.626556 
	C559.500000,311.454987 560.553528,312.150116 560.834473,313.085114 
	C563.061035,320.495422 565.208801,327.931366 567.228760,335.400574 
	C567.798523,337.507385 567.864441,339.750427 568.284119,342.831238 
	C561.101624,335.922150 559.809387,327.430634 556.865295,319.646515 
	C554.811768,314.217163 551.686646,309.193115 549.040161,303.988037 
	C549.040161,303.988037 548.991211,303.983459 549.006592,303.590759 
	C546.066162,296.119354 543.774658,288.606537 536.644531,284.255371 
	C536.644531,284.255371 536.819397,284.193604 536.828369,283.889557 
	C534.741760,278.824402 531.180176,275.905853 526.028625,274.985687 
	C526.028625,274.985687 526.006042,275.004761 525.950073,274.629974 
	C519.832886,269.249603 512.804993,270.071655 506.253845,272.073944 
	C496.373230,275.093842 490.115021,282.966339 484.447083,291.090698 
	C482.834229,293.402557 482.147583,296.360596 481.036194,299.022308 
	C481.036194,299.022308 481.000519,299.007019 480.637787,299.001892 
	C479.736603,297.870697 478.617310,296.653229 478.777252,295.637085 
	C479.142151,293.318695 480.133728,291.098907 480.870758,288.839081 
	C480.870758,288.839081 480.917389,288.924896 481.200195,288.809570 
	C485.330566,283.143158 489.178070,277.592102 493.025574,272.041046 
	C493.025604,272.041046 493.000000,272.000000 493.374023,271.976044 
	C497.294281,269.663147 500.758179,267.230804 504.413818,265.132477 
	C507.139038,263.568146 510.112183,262.435730 512.974915,261.111023 
z"/>
<path fill="#2155C0" opacity="1.000000" stroke="none" 
	d="
M549.069092,304.357910 
	C551.686646,309.193115 554.811768,314.217163 556.865295,319.646515 
	C559.809387,327.430634 561.101624,335.922150 568.284119,342.831238 
	C567.864441,339.750427 567.798523,337.507385 567.228760,335.400574 
	C565.208801,327.931366 563.061035,320.495422 560.834473,313.085114 
	C560.553528,312.150116 559.500000,311.454987 558.831909,310.626556 
	C558.005554,309.601898 556.369690,308.400238 556.527588,307.540131 
	C558.092773,299.015045 551.848694,293.607147 548.515564,287.123199 
	C544.209412,278.746368 537.254944,272.656342 529.786682,267.124054 
	C529.041504,266.572052 528.638550,265.558167 528.040283,264.417542 
	C539.077576,269.329712 545.739380,278.847961 551.476685,289.021881 
	C561.442200,306.693878 567.379883,325.882812 570.807312,345.752838 
	C573.454773,361.101624 575.036438,376.634186 576.800781,392.696747 
	C576.710876,393.888245 576.912109,394.468018 577.113342,395.047791 
	C577.325623,396.181458 577.537842,397.315125 577.475952,399.139587 
	C577.040161,408.000488 576.878479,416.170593 576.716797,424.340729 
	C576.432556,424.302826 576.148254,424.264954 575.864014,424.227051 
	C575.137695,421.785217 574.411316,419.343353 573.685059,416.901489 
	C572.124939,402.885986 570.748535,388.846649 568.933105,374.864319 
	C567.908386,366.971619 566.161072,359.172760 564.396362,351.169678 
	C564.053589,351.007721 564.070068,351.067719 564.070068,351.067719 
	C561.540100,341.747162 559.279358,332.342041 556.386963,323.135345 
	C554.414124,316.855957 551.558777,310.853882 549.069092,304.357910 
z"/>
<path fill="#154B99" opacity="1.000000" stroke="none" 
	d="
M564.022827,351.002869 
	C563.741211,351.684570 563.107910,352.514374 563.302551,353.034149 
	C564.423706,356.028229 563.057800,357.182800 560.350220,357.998169 
	C524.223328,368.877350 491.140991,386.136200 458.848572,406.565063 
	C458.268158,404.939758 458.292236,403.048798 458.316345,401.157806 
	C477.229034,390.468384 495.800751,379.104492 515.168030,369.314240 
	C529.320862,362.159851 544.504517,357.036285 559.284424,351.147186 
	C560.426880,350.691956 562.010376,351.343353 563.729492,351.274048 
	C564.070068,351.067719 564.053589,351.007721 564.022827,351.002869 
z"/>
<path fill="#0A1536" opacity="1.000000" stroke="none" 
	d="
M395.997986,426.946625 
	C393.432220,428.024933 390.956696,429.504974 388.283600,430.105377 
	C380.608459,431.829224 373.476746,428.203735 370.631989,421.507843 
	C367.990662,415.290771 370.183380,407.894623 375.860138,403.872955 
	C381.561340,399.834015 389.226288,400.237396 394.222931,404.839233 
	C399.743347,409.923584 400.784760,417.617645 396.842407,424.338989 
	C396.424408,425.051636 395.896423,425.699738 395.702118,426.682861 
	C395.984772,426.987915 395.997986,426.946625 395.997986,426.946625 
z"/>
<path fill="#133F86" opacity="1.000000" stroke="none" 
	d="
M620.344116,331.243042 
	C629.161621,326.030762 637.956604,327.653931 642.300842,335.007874 
	C646.517273,342.145538 644.089783,351.058258 636.802246,355.195496 
	C630.362122,358.851776 622.168823,357.118652 617.637085,351.141418 
	C613.284424,345.400360 614.235779,337.652802 620.344116,331.243042 
z"/>
<path fill="#133F86" opacity="1.000000" stroke="none" 
	d="
M567.268494,572.869507 
	C564.297241,579.527100 559.424194,582.872986 552.553040,582.437378 
	C546.541565,582.056396 542.322815,578.575073 540.176270,573.004761 
	C537.931396,567.179321 539.164124,561.844177 543.579651,557.415710 
	C547.986450,552.996033 553.870972,552.033264 559.658081,554.568970 
	C565.012085,556.914917 568.238831,562.000916 568.091064,568.080627 
	C568.055237,569.555176 567.643738,571.020508 567.268494,572.869507 
z"/>
<path fill="#133F86" opacity="1.000000" stroke="none" 
	d="
M613.548584,532.097961 
	C605.339783,531.645386 596.717529,531.251404 588.128845,530.482849 
	C584.223389,530.133362 580.406006,528.864136 576.502747,528.389404 
	C575.214111,528.232666 573.781555,529.259460 572.414795,529.745178 
	C572.460571,530.183289 572.506409,530.621460 572.552185,531.059631 
	C577.711487,532.372559 582.863831,533.713867 588.032349,534.989563 
	C592.268372,536.035034 596.523621,537.002380 600.882812,538.360901 
	C574.608459,534.957458 549.783386,526.084351 525.560791,515.383667 
	C515.995300,511.158020 506.716064,506.284332 497.107422,501.121399 
	C496.570129,499.762817 496.231903,498.988586 495.836639,498.083862 
	C497.269440,498.083862 498.601715,498.083862 499.933960,498.083862 
	C520.497559,508.244843 541.559448,517.177979 563.646973,523.495056 
	C579.827698,528.122742 596.259583,531.430298 613.548584,532.097961 
z"/>
<path fill="#0A1536" opacity="1.000000" stroke="none" 
	d="
M499.678070,497.872162 
	C498.601715,498.083862 497.269440,498.083862 495.836639,498.083862 
	C496.231903,498.988586 496.570129,499.762817 496.873535,500.809753 
	C489.499146,497.076111 482.172791,493.045288 474.809448,489.083130 
	C473.253357,488.245850 471.561951,487.660034 469.511627,486.578247 
	C456.820221,477.933624 444.550079,469.669098 432.279968,461.404572 
	C432.140442,461.256134 432.000946,461.107697 431.454468,460.588074 
	C427.611633,457.721039 424.175812,455.225159 420.739960,452.729309 
	C418.732147,451.044800 416.546448,449.522675 414.795135,447.604034 
	C413.977081,446.707855 413.999298,445.044586 413.464844,443.262115 
	C413.591949,442.638123 413.650940,442.405243 413.901367,442.413727 
	C414.590973,442.169250 414.845184,441.607666 415.056427,441.070160 
	C415.013489,441.094208 415.071594,441.173676 415.071594,441.173676 
	C416.742920,441.958069 418.705322,442.408997 420.042358,443.576263 
	C444.339081,464.789001 471.044403,482.447723 499.678070,497.872162 
z"/>
<path fill="#2155C0" opacity="1.000000" stroke="none" 
	d="
M657.284119,368.941925 
	C655.296997,360.505524 653.795593,358.436890 644.684814,351.687286 
	C645.504761,348.941559 646.345703,346.125397 647.186523,343.309692 
	C660.457397,345.703918 669.221558,358.634216 667.295959,373.132538 
	C665.359985,387.708038 658.114563,400.050446 648.717651,410.622559 
	C637.226440,423.550842 624.300049,435.206512 611.924866,447.341675 
	C610.552673,448.687195 608.727112,449.570374 606.815979,450.447845 
	C611.074463,446.211609 615.351013,441.993347 619.588318,437.735962 
	C637.117126,420.124329 652.699524,401.328857 657.587463,375.495789 
	C658.333435,375.934265 658.956360,376.704376 658.859314,377.369507 
	C657.608887,385.941193 654.477173,393.846375 650.142700,401.304657 
	C648.659546,403.856659 647.170166,406.405060 645.683655,408.955109 
	C646.344727,409.350342 647.005737,409.745575 647.666809,410.140839 
	C651.275452,404.588898 655.421021,399.303589 658.346252,393.412292 
	C661.462524,387.136139 664.268921,380.452759 665.609741,373.632446 
	C666.595703,368.617157 666.054810,363.261688 663.052795,358.000427 
	C659.686096,352.099945 655.621948,347.919281 649.384766,345.605072 
	C645.864807,350.028046 645.959229,350.866882 650.463196,353.988129 
	C656.228149,357.983185 658.635681,363.261322 657.284119,368.941925 
z"/>
<path fill="#154B99" opacity="1.000000" stroke="none" 
	d="
M573.616089,417.345062 
	C574.411316,419.343353 575.137695,421.785217 575.864014,424.227051 
	C576.148254,424.264954 576.432556,424.302826 576.716797,424.340729 
	C576.878479,416.170593 577.040161,408.000488 577.387573,399.475922 
	C577.604919,420.253387 578.497437,441.429840 577.407166,462.503723 
	C576.464294,480.730133 573.281311,498.841522 571.050293,516.999084 
	C570.849182,518.636169 570.368286,520.238770 569.961548,522.114502 
	C568.571472,521.967468 567.305969,521.833618 565.404724,521.632568 
	C573.020081,487.226135 575.216919,452.646942 573.616089,417.345062 
z"/>
<path fill="#2155C0" opacity="1.000000" stroke="none" 
	d="
M623.583008,703.142456 
	C623.264587,703.643127 622.582703,703.968750 621.900879,704.294312 
	C620.934265,702.147217 619.176392,700.016602 619.131287,697.850403 
	C618.867798,685.197388 618.951416,672.535645 619.039429,659.877747 
	C619.067383,655.850159 617.903503,653.667847 613.300232,653.882324 
	C610.119995,654.030579 608.867737,654.866028 608.970276,658.191772 
	C609.357544,670.753296 609.549255,683.321045 609.765137,695.887390 
	C609.781616,696.848267 609.397400,697.812683 609.229980,698.780701 
	C607.895325,706.497070 613.242188,712.958130 621.008118,713.001770 
	C624.672363,713.022278 628.347839,712.825439 631.998718,713.047791 
	C639.631104,713.512695 647.003540,713.288696 653.115112,706.252625 
	C655.829712,711.519775 659.046021,715.244995 666.268494,711.796143 
	C666.268494,708.995605 666.268494,705.328491 666.493408,701.399658 
	C666.828735,704.620728 666.956909,708.103027 667.044067,711.586365 
	C667.116028,714.457153 666.198364,715.927185 662.930298,714.866821 
	C659.719727,713.825073 655.031799,716.436157 653.546265,710.957947 
	C653.493042,710.761780 651.147278,711.066467 649.911987,711.332825 
	C644.970947,712.398254 640.092346,713.882874 635.101990,714.550110 
	C630.841431,715.119751 626.459778,714.832581 622.131592,714.837219 
	C612.711670,714.847290 607.969421,710.183472 607.942444,700.783997 
	C607.897034,684.985596 607.929932,669.186890 607.929932,653.012573 
	C612.035034,653.012573 615.927246,653.012573 620.495605,653.012573 
	C620.495605,658.298889 620.493042,663.558594 620.496155,668.818298 
	C620.501770,678.471436 620.377930,688.128113 620.639893,697.774353 
	C620.687500,699.527344 622.319275,701.237366 623.583008,703.142456 
z"/>
<path fill="#0D51D9" opacity="1.000000" stroke="none" 
	d="
M657.227295,369.373047 
	C658.635681,363.261322 656.228149,357.983185 650.463196,353.988129 
	C645.959229,350.866882 645.864807,350.028046 649.384766,345.605072 
	C655.621948,347.919281 659.686096,352.099945 663.052795,358.000427 
	C666.054810,363.261688 666.595703,368.617157 665.609741,373.632446 
	C664.268921,380.452759 661.462524,387.136139 658.346252,393.412292 
	C655.421021,399.303589 651.275452,404.588898 647.666809,410.140839 
	C647.005737,409.745575 646.344727,409.350342 645.683655,408.955109 
	C647.170166,406.405060 648.659546,403.856659 650.142700,401.304657 
	C654.477173,393.846375 657.608887,385.941193 658.859314,377.369507 
	C658.956360,376.704376 658.333435,375.934265 657.705811,375.110291 
	C657.301147,373.273132 657.235779,371.538635 657.227295,369.373047 
z"/>
<path fill="#2155C0" opacity="1.000000" stroke="none" 
	d="
M769.465210,703.374695 
	C767.826477,705.297729 764.342224,706.930115 766.451355,710.098816 
	C767.578674,711.792603 770.786682,712.826660 773.089722,712.888367 
	C783.740173,713.173462 794.402954,712.959595 805.060547,713.029846 
	C812.798401,713.080872 818.863831,708.412354 818.062622,699.868225 
	C817.814941,697.226685 818.021912,694.542786 818.017639,691.878235 
	C818.004822,683.891174 813.281616,679.114258 805.078552,679.014587 
	C797.086182,678.917480 789.088745,678.863159 781.099426,679.047119 
	C777.348450,679.133423 775.978333,677.429260 776.008789,673.990540 
	C776.027893,671.825928 775.894897,669.654541 776.021484,667.497375 
	C776.269226,663.274719 778.757202,662.080444 782.758423,662.073059 
	C793.807373,662.052795 804.855774,661.701416 816.251221,661.307861 
	C817.676941,664.589172 815.221130,664.073059 813.269470,664.077393 
	C802.960449,664.100159 792.651489,664.110779 782.342468,664.125000 
	C781.042603,664.126770 779.742737,664.125183 778.650879,664.125183 
	C778.361084,664.623901 778.223511,664.759949 778.201599,664.912598 
	C776.440613,677.186584 776.690918,677.478577 788.915955,677.493835 
	C794.902161,677.501343 800.891479,677.394714 806.873779,677.553040 
	C814.642700,677.758667 819.065430,682.374512 819.164917,690.184082 
	C819.217834,694.340454 819.205078,698.499268 819.127808,702.655212 
	C819.004150,709.304077 815.204834,714.188782 808.670837,714.372620 
	C794.408813,714.773804 780.127625,714.496704 765.947571,714.496704 
	C763.794739,706.272766 764.571228,703.638123 769.465210,703.374695 
z"/>
<path fill="#154B99" opacity="1.000000" stroke="none" 
	d="
M413.466003,442.096619 
	C413.650940,442.405243 413.591949,442.638123 413.328430,442.809265 
	C408.173676,447.566711 402.979492,452.310089 397.463867,457.169434 
	C401.885040,451.958618 406.622040,446.626862 411.374115,441.308533 
	C412.587189,439.950897 413.847961,438.635803 416.102020,436.207489 
	C413.226440,436.617188 411.997559,436.792267 410.417023,436.983948 
	C423.911224,426.572418 437.757080,416.144257 452.190430,405.437927 
	C455.988678,407.811310 452.916901,409.588348 451.874756,411.647888 
	C439.542694,421.250031 427.210632,430.852142 414.975098,440.813965 
	C415.071594,441.173676 415.013489,441.094208 414.685120,441.013855 
	C414.059814,441.321228 413.762909,441.708923 413.466003,442.096619 
z"/>
<path fill="#2155C0" opacity="1.000000" stroke="none" 
	d="
M578.353271,345.501007 
	C587.357056,343.586853 595.961365,341.715271 604.602112,340.030518 
	C606.985474,339.565826 609.477539,339.658234 612.040405,339.486969 
	C612.302002,342.238220 612.534058,344.679382 612.763550,347.092987 
	C600.002930,349.094513 587.294922,351.087799 574.266724,353.131317 
	C573.938538,351.245789 573.608826,349.351593 573.184448,346.913483 
	C574.898743,346.447754 576.433228,346.030884 578.353271,345.501007 
z"/>
<path fill="#DAEDFC" opacity="1.000000" stroke="none" 
	d="
M688.762024,708.199463 
	C692.243042,712.587524 696.577942,714.472290 702.247620,714.383911 
	C716.228027,714.165955 730.214111,714.312500 744.591431,714.312500 
	C744.591431,710.716614 744.591431,707.326782 744.591431,703.191895 
	C737.047363,703.191895 729.458069,703.191895 721.433350,703.083374 
	C722.563477,702.658020 724.116211,702.178955 725.696899,702.054077 
	C730.960449,701.638184 736.230225,701.189392 741.505005,701.065613 
	C745.306519,700.976379 748.733276,701.688538 747.041504,707.019226 
	C746.753662,707.926025 746.993042,708.999268 746.984558,709.995667 
	C746.931335,716.229370 743.705872,718.952209 737.734802,718.388306 
	C730.575500,717.712280 723.380249,717.114075 716.198364,717.088074 
	C711.531311,717.071167 706.833130,717.975769 702.198608,718.761230 
	C697.487122,719.559631 689.013916,713.316467 688.762024,708.199463 
z"/>
<path fill="#DAEDFC" opacity="1.000000" stroke="none" 
	d="
M432.214874,461.785217 
	C444.550079,469.669098 456.820221,477.933624 469.153381,486.550232 
	C460.884613,486.660553 460.727325,486.680969 461.771820,494.730499 
	C462.888489,503.336151 464.406403,511.889221 465.594238,520.486633 
	C465.828522,522.182556 465.358032,523.975952 464.849030,525.938843 
	C462.615723,517.324402 460.745972,508.495392 458.779083,499.024231 
	C458.485413,497.962738 458.288910,497.543396 458.092377,497.124023 
	C458.092377,497.124023 458.163025,496.967346 458.159241,496.483887 
	C457.312592,490.871307 456.469696,485.742157 455.626801,480.613037 
	C448.671265,475.816803 441.663391,471.093231 434.809113,466.156403 
	C433.594635,465.281647 433.019928,463.518677 432.214874,461.785217 
z"/>
<path fill="#2155C0" opacity="1.000000" stroke="none" 
	d="
M480.576538,288.992859 
	C480.133728,291.098907 479.142151,293.318695 478.777252,295.637085 
	C478.617310,296.653229 479.736603,297.870697 480.651367,299.016602 
	C474.921814,314.275879 468.815979,329.515320 462.710114,344.754791 
	C465.134613,325.154480 470.839630,306.565369 480.576538,288.992859 
M476.192047,306.538391 
	C476.745911,304.912842 477.299774,303.287292 477.853638,301.661774 
	C473.842224,304.562805 473.568939,305.911377 476.192047,306.538391 
M473.592529,309.516937 
	C473.592529,309.516937 473.480530,309.585602 473.592529,309.516937 
z"/>
<path fill="#DAEDFC" opacity="1.000000" stroke="none" 
	d="
M745.529785,673.775269 
	C745.143066,671.172485 745.077759,668.348877 744.991516,665.526001 
	C744.756836,657.848267 740.117798,653.004761 732.502869,652.891418 
	C722.183289,652.737732 711.860229,652.818054 701.538635,652.810303 
	C695.648254,652.805847 691.367554,655.408875 688.564941,660.983887 
	C687.306396,657.632385 689.157898,653.180237 692.565857,652.380981 
	C697.263123,651.279297 702.081909,650.323059 706.883118,650.119934 
	C715.325195,649.762695 723.794434,649.949219 732.249878,650.075256 
	C734.462341,650.108215 736.665649,650.757019 738.768982,651.105652 
	C740.359802,650.608337 742.045288,650.081421 743.730774,649.554504 
	C743.976929,651.054504 744.160461,652.568115 744.482178,654.051758 
	C745.164185,657.197021 746.319031,660.299561 746.532776,663.470032 
	C746.757263,666.801025 746.108704,670.190735 745.529785,673.775269 
z"/>
<path fill="#2155C0" opacity="1.000000" stroke="none" 
	d="
M816.725769,654.536133 
	C814.850098,654.597107 813.082031,654.054504 811.309326,654.039001 
	C801.489075,653.952881 791.666077,654.105530 781.847107,653.964966 
	C769.976257,653.795105 766.658264,659.035217 765.893555,669.808350 
	C764.856750,684.414001 771.566528,688.674561 783.937927,688.083313 
	C790.727844,687.758728 797.555359,688.220154 804.691406,688.583252 
	C795.557495,688.896729 786.095947,689.104370 776.639587,688.961426 
	C769.733032,688.856995 765.153748,684.081604 765.024963,677.284302 
	C764.946411,673.135681 764.989075,668.982361 765.078796,664.833374 
	C765.222473,658.191284 768.859680,653.255676 775.411011,653.001160 
	C788.830383,652.479736 802.283386,652.811646 815.722229,652.866943 
	C816.093689,652.868469 816.461670,653.720520 816.725769,654.536133 
z"/>
<path fill="#0D51D9" opacity="1.000000" stroke="none" 
	d="
M405.907898,533.433594 
	C412.036102,534.340149 417.802216,535.086792 422.293945,535.668457 
	C410.934631,539.244995 383.911774,537.045715 377.194061,530.033875 
	C380.735199,530.216858 384.866547,529.303101 387.688751,530.821899 
	C392.807861,533.576782 397.963043,533.752136 403.670654,533.489502 
	C404.502045,533.257202 405.023926,533.265503 405.907898,533.433594 
z"/>
<path fill="#2155C0" opacity="1.000000" stroke="none" 
	d="
M666.856445,658.606323 
	C665.703430,656.518860 665.560669,653.670105 661.398926,653.844116 
	C657.294861,654.015747 655.861084,655.246582 655.914551,659.386719 
	C656.094543,673.297546 655.986267,687.212463 655.904175,701.125305 
	C655.900513,701.744568 655.072266,702.359070 654.333008,703.076172 
	C654.037842,686.569336 654.037842,669.962158 654.037842,653.005493 
	C658.588318,653.005493 662.486633,653.005493 666.949524,653.005493 
	C666.949524,654.737854 666.949524,656.497559 666.856445,658.606323 
z"/>
<path fill="#DAEDFC" opacity="1.000000" stroke="none" 
	d="
M687.942993,661.259888 
	C688.307739,675.537048 688.272400,689.770813 688.169556,704.463013 
	C687.268372,705.373291 686.434631,705.825134 685.042236,706.579651 
	C685.042236,692.419434 684.975342,678.740051 685.151245,665.063843 
	C685.167847,663.771362 686.709473,662.498474 687.942993,661.259888 
z"/>
<path fill="#154B99" opacity="1.000000" stroke="none" 
	d="
M561.718384,536.464844 
	C562.403809,531.214905 564.924805,533.349121 567.746338,534.625854 
	C566.003052,540.729980 564.292297,546.720337 562.533142,552.879883 
	C560.660522,552.186096 559.141602,551.623352 557.099426,550.866821 
	C558.626099,546.135559 560.124512,541.491882 561.718384,536.464844 
z"/>
<path fill="#2155C0" opacity="1.000000" stroke="none" 
	d="
M481.307922,298.849548 
	C482.147583,296.360596 482.834229,293.402557 484.447083,291.090698 
	C490.115021,282.966339 496.373230,275.093842 506.253845,272.073944 
	C512.804993,270.071655 519.832886,269.249603 525.952393,274.616028 
	C513.751648,268.976837 503.291565,272.442902 494.549164,281.742889 
	C489.704102,286.896942 485.869629,293.000977 481.307922,298.849548 
z"/>
<path fill="#DAEDFC" opacity="1.000000" stroke="none" 
	d="
M704.964966,702.593018 
	C702.171509,703.683289 700.559753,703.067444 700.778625,699.649536 
	C700.989014,696.364075 700.824097,693.054565 700.824097,689.066467 
	C715.531006,689.066467 729.781677,689.066467 744.494568,689.018250 
	C743.840454,689.563721 742.724060,690.157410 741.513306,690.801331 
	C741.949341,691.835327 742.418030,692.946716 742.998413,694.322876 
	C740.153687,695.143372 738.624268,695.213989 736.388977,692.747009 
	C734.580261,690.750977 730.474609,690.380920 727.325806,690.155518 
	C721.857971,689.764099 716.342224,690.022034 710.846619,690.042969 
	C702.826477,690.073486 700.748169,693.310059 704.161682,700.391602 
	C704.449036,700.987732 704.668945,701.616394 704.964966,702.593018 
z"/>
<path fill="#DAEDFC" opacity="1.000000" stroke="none" 
	d="
M476.996582,560.577759 
	C472.984314,550.286743 468.989716,539.533752 465.027893,528.396851 
	C466.448212,528.456909 467.835724,528.900818 469.151550,529.321777 
	C469.213318,533.325439 467.954071,537.794373 473.964935,538.525574 
	C474.116638,538.544067 474.540039,542.329468 473.677979,543.516602 
	C471.412445,546.636475 472.214508,548.312500 475.145081,550.209839 
	C476.174408,550.876221 476.680847,552.760498 476.899017,554.170227 
	C477.199463,556.111572 476.999725,558.130249 476.996582,560.577759 
z"/>
<path fill="#0A1536" opacity="1.000000" stroke="none" 
	d="
M406.884003,437.287903 
	C406.624878,437.644257 406.591400,437.738342 406.611694,437.696350 
	C401.867584,438.485291 395.259796,431.619324 396.347778,427.139191 
	C395.997986,426.946625 395.984772,426.987915 395.963440,426.994293 
	C397.254700,426.488617 398.567291,425.976593 401.156677,424.966461 
	C402.882385,426.933105 405.109558,429.726013 407.613861,432.243195 
	C409.557129,434.196442 409.062653,435.546570 406.884003,437.287903 
z"/>
<path fill="#DAEDFC" opacity="1.000000" stroke="none" 
	d="
M455.040741,447.968872 
	C455.043457,453.354736 455.043457,458.246307 455.043457,463.858063 
	C454.252716,462.535065 453.084106,461.486389 453.077179,460.430115 
	C452.994446,447.818176 453.078186,435.205017 453.161407,422.592468 
	C453.163727,422.240021 453.643799,421.890686 455.038025,421.614777 
	C455.038025,430.234680 455.038025,438.854614 455.040741,447.968872 
z"/>
<path fill="#2155C0" opacity="1.000000" stroke="none" 
	d="
M463.147461,350.924744 
	C461.833679,357.438995 460.459564,363.969879 459.093201,370.502350 
	C458.672028,372.516113 458.272095,374.534363 457.862427,376.550537 
	C457.348358,376.461243 456.834259,376.371948 456.320160,376.282654 
	C457.499298,368.632904 458.609863,360.970917 459.967102,353.352875 
	C460.097961,352.618347 461.760162,352.156647 462.916809,351.197449 
	C463.122101,350.826569 463.090118,350.941986 463.147461,350.924744 
z"/>
<path fill="#DAEDFC" opacity="1.000000" stroke="none" 
	d="
M452.009338,411.976715 
	C452.916901,409.588348 455.988678,407.811310 452.397064,405.174255 
	C452.667206,402.118988 453.334259,399.052490 453.963165,395.978149 
	C454.335052,394.160309 454.646637,392.330170 454.985382,390.505554 
	C455.685486,390.592773 456.385620,390.680023 457.085754,390.767242 
	C456.875916,393.289032 456.549866,395.809418 456.519257,398.333374 
	C456.508545,399.218109 457.224060,400.111694 457.962128,401.079529 
	C458.292236,403.048798 458.268158,404.939758 458.623474,406.816589 
	C457.640808,409.273590 456.278748,411.744812 454.734650,414.546234 
	C454.406372,414.262268 453.275116,413.283875 452.009338,411.976715 
z"/>
<path fill="#2155C0" opacity="1.000000" stroke="none" 
	d="
M536.755798,284.585327 
	C543.774658,288.606537 546.066162,296.119354 549.023560,303.572937 
	C544.972351,297.603638 540.919678,291.259491 536.755798,284.585327 
z"/>
<path fill="#2155C0" opacity="1.000000" stroke="none" 
	d="
M512.570801,261.055206 
	C510.112183,262.435730 507.139038,263.568146 504.413818,265.132477 
	C500.758179,267.230804 497.294281,269.663147 493.394531,271.988892 
	C498.082611,266.037079 504.493103,262.422821 512.570801,261.055206 
z"/>
<path fill="#2155C0" opacity="1.000000" stroke="none" 
	d="
M492.711517,272.139069 
	C489.178070,277.592102 485.330566,283.143158 481.151672,288.803986 
	C484.679382,283.354858 488.538422,277.795959 492.711517,272.139069 
z"/>
<path fill="#154B99" opacity="1.000000" stroke="none" 
	d="
M455.505737,481.015045 
	C456.469696,485.742157 457.312592,490.871307 458.094818,496.427063 
	C457.614166,496.877747 457.194214,496.901855 456.458618,496.916840 
	C455.890198,491.744171 455.637421,486.580627 455.505737,481.015045 
z"/>
<path fill="#DAEDFC" opacity="1.000000" stroke="none" 
	d="
M420.419189,452.862244 
	C424.175812,455.225159 427.611633,457.721039 431.171326,460.473389 
	C430.828033,461.292603 429.984650,462.371918 429.947296,462.344696 
	C426.518188,459.846710 423.133301,457.285950 419.820496,454.635620 
	C419.610229,454.467407 419.992065,453.559143 420.419189,452.862244 
z"/>
<path fill="#2155C0" opacity="1.000000" stroke="none" 
	d="
M526.219788,275.258667 
	C531.180176,275.905853 534.741760,278.824402 536.761963,283.954224 
	C533.261353,281.392517 529.836182,278.462067 526.219788,275.258667 
z"/>
<path fill="#133F86" opacity="1.000000" stroke="none" 
	d="
M645.632202,526.086914 
	C642.264587,530.607544 636.820007,530.821289 631.349243,531.412720 
	C635.817627,529.520569 640.544617,527.845032 645.632202,526.086914 
z"/>
<path fill="#154B99" opacity="1.000000" stroke="none" 
	d="
M386.517273,470.219482 
	C388.700317,466.994995 391.198059,463.647797 394.067078,460.300476 
	C391.902863,463.565857 389.367401,466.831299 386.517273,470.219482 
z"/>
<path fill="#133F86" opacity="1.000000" stroke="none" 
	d="
M628.545410,531.430725 
	C624.878052,531.895325 620.790039,532.297180 616.384277,532.453613 
	C620.085938,531.928162 624.105408,531.648071 628.545410,531.430725 
z"/>
<path fill="#2155C0" opacity="1.000000" stroke="none" 
	d="
M666.849304,692.573853 
	C666.582031,690.468323 666.437622,688.058167 666.525391,685.359131 
	C666.829102,687.469910 666.900635,689.869568 666.849304,692.573853 
z"/>
<path fill="#133F86" opacity="1.000000" stroke="none" 
	d="
M604.387207,539.167847 
	C604.213867,538.399109 604.375427,537.763367 604.536926,537.127625 
	C605.966980,537.765137 607.396973,538.402710 608.910461,539.365662 
	C607.569946,539.560974 606.146057,539.430908 604.387207,539.167847 
z"/>
<path fill="#2155C0" opacity="1.000000" stroke="none" 
	d="
M805.702881,689.160339 
	C806.022156,690.513245 806.594849,692.158997 806.885559,693.911926 
	C806.387817,692.497131 806.172119,690.975159 805.702881,689.160339 
z"/>
<path fill="#2155C0" opacity="1.000000" stroke="none" 
	d="
M652.783875,703.300415 
	C651.609802,703.531189 650.118286,703.650879 648.404053,703.570923 
	C649.609680,703.310669 651.038086,703.250000 652.783875,703.300415 
z"/>
<path fill="#154B99" opacity="1.000000" stroke="none" 
	d="
M383.274750,475.276611 
	C383.926514,473.747192 384.814911,472.035828 386.040710,470.248077 
	C385.422516,471.812683 384.466949,473.453674 383.274750,475.276611 
z"/>
<path fill="#2155C0" opacity="1.000000" stroke="none" 
	d="
M806.522949,698.395508 
	C806.796814,699.295288 806.917969,700.581909 806.753662,701.974670 
	C806.435547,700.981323 806.402832,699.881836 806.522949,698.395508 
z"/>
<path fill="#2155C0" opacity="1.000000" stroke="none" 
	d="
M602.396179,454.058594 
	C602.636414,453.770782 602.860168,453.600708 603.083862,453.430664 
	C602.849121,453.679230 602.614380,453.927795 602.396179,454.058594 
z"/>
<path fill="#DAEDFC" opacity="1.000000" stroke="none" 
	d="
M715.763062,702.700317 
	C714.605530,703.028687 713.210571,703.100098 711.407349,703.066895 
	C712.507996,702.789307 714.016846,702.616333 715.763062,702.700317 
z"/>
<path fill="#2155C0" opacity="1.000000" stroke="none" 
	d="
M805.812622,702.954468 
	C805.407227,703.241455 804.738586,703.524414 804.066406,703.582214 
	C804.558411,703.221497 805.053955,703.085999 805.812622,702.954468 
z"/>
<path fill="#154B99" opacity="1.000000" stroke="none" 
	d="
M457.485352,500.505371 
	C457.719116,501.416687 457.897034,502.646332 458.073730,504.188263 
	C457.858154,503.274963 457.643829,502.049316 457.485352,500.505371 
z"/>
<path fill="#154B99" opacity="1.000000" stroke="none" 
	d="
M577.195007,394.849213 
	C576.912109,394.468018 576.710876,393.888245 576.746216,393.158081 
	C577.080750,393.555328 577.178772,394.102997 577.195007,394.849213 
z"/>
<path fill="#2155C0" opacity="1.000000" stroke="none" 
	d="
M644.586548,703.304565 
	C644.383545,703.510864 643.896851,703.614441 643.271118,703.561890 
	C643.522339,703.337769 643.912598,703.269775 644.586548,703.304565 
z"/>
<path fill="#2155C0" opacity="1.000000" stroke="none" 
	d="
M600.493530,456.492554 
	C600.512939,456.491943 600.474121,456.493164 600.493530,456.492554 
z"/>
<path fill="#154B99" opacity="1.000000" stroke="none" 
	d="
M396.460754,458.231445 
	C396.353455,457.977051 396.525909,457.628357 396.995911,457.207458 
	C397.109192,457.469208 396.924866,457.803131 396.460754,458.231445 
z"/>
<path fill="#154B99" opacity="1.000000" stroke="none" 
	d="
M395.511719,459.275421 
	C395.396576,459.014893 395.560394,458.658600 396.025269,458.229797 
	C396.147766,458.498108 395.969208,458.838867 395.511719,459.275421 
z"/>
<path fill="#154B99" opacity="1.000000" stroke="none" 
	d="
M394.564087,460.319153 
	C394.439758,460.039520 394.599243,459.679749 395.070679,459.270325 
	C395.204376,459.560120 395.026123,459.899567 394.564087,460.319153 
z"/>
<path fill="#F8FBFC" opacity="1.000000" stroke="none" 
	d="
M568.325867,702.966431 
	C564.022949,700.208435 559.750183,697.853271 556.305969,694.616394 
	C552.075867,690.640930 547.618713,692.504822 543.161255,693.090210 
	C542.897766,693.124878 542.363831,696.015442 542.966614,696.776550 
	C544.545837,698.770386 546.684937,700.320862 549.624573,702.970886 
	C539.630310,702.970886 531.054749,703.072754 522.488953,702.829407 
	C521.523804,702.802002 519.808838,700.831909 519.798767,699.750000 
	C519.632019,681.948669 519.615112,664.144470 519.842529,646.344482 
	C519.857239,645.188232 522.110779,643.086853 523.347900,643.068054 
	C538.486084,642.837402 553.629150,642.958862 568.770325,642.870300 
	C571.513428,642.854248 572.716797,643.816589 572.714539,646.588501 
	C572.700317,664.223083 572.713440,681.857788 572.795166,699.492126 
	C572.808960,702.469116 571.318054,703.262512 568.325867,702.966431 
z"/>
<path fill="#F8FBFC" opacity="1.000000" stroke="none" 
	d="
M176.509613,682.983398 
	C175.855408,682.084167 175.209000,680.999634 175.502960,680.324524 
	C180.390091,669.101501 185.395111,657.929749 190.873978,645.623047 
	C196.488556,658.480164 201.681747,670.372192 207.191208,682.988525 
	C196.712845,682.988525 186.833939,682.988525 176.509613,682.983398 
z"/>
<path fill="#F8FBFC" opacity="1.000000" stroke="none" 
	d="
M324.003723,687.996460 
	C324.002228,679.861511 324.002228,672.226074 324.002228,664.298950 
	C334.923431,664.298950 345.520569,664.298950 356.522705,664.298950 
	C356.522705,676.909363 356.522705,689.636475 356.522705,702.775391 
	C346.027588,702.775391 335.322754,702.775391 324.005219,702.775391 
	C324.005219,698.049500 324.005219,693.272705 324.003723,687.996460 
z"/>
<path fill="#DAEDFC" opacity="1.000000" stroke="none" 
	d="
M732.767151,664.526550 
	C732.767151,664.526550 732.675171,664.802368 732.704895,665.372253 
	C732.734619,669.878967 732.734619,673.815796 732.734619,678.016846 
	C721.636230,678.016846 711.342712,678.016846 701.049133,678.016846 
	C701.049133,678.016846 701.038818,677.961304 700.985229,677.541992 
	C700.834717,675.738464 700.737732,674.354309 700.640747,672.970093 
	C700.684692,672.234985 700.728638,671.499878 700.779114,670.002747 
	C700.718689,668.154724 700.651672,667.068726 700.584717,665.982727 
	C700.716309,665.557312 700.847839,665.131958 701.538452,664.375122 
	C712.320679,664.204651 722.543945,664.365601 732.767151,664.526550 
M727.452942,666.981262 
	C720.833740,666.651917 714.209717,666.396912 707.597229,665.965332 
	C703.622253,665.705872 702.904114,667.826294 702.912842,671.205750 
	C702.921387,674.508667 703.925842,676.161804 707.500732,676.064209 
	C713.325928,675.905151 719.163452,676.151062 724.985107,675.937134 
	C726.588501,675.878174 729.446899,674.886292 729.498840,674.162476 
	C729.665649,671.837708 728.789124,669.438110 727.452942,666.981262 
z"/>
<path fill="#2155C0" opacity="1.000000" stroke="none" 
	d="
M701.231323,678.364380 
	C711.342712,678.016846 721.636230,678.016846 732.734619,678.016846 
	C732.734619,673.815796 732.734619,669.878967 732.796143,665.485413 
	C733.437439,668.854858 734.119568,672.670776 734.503479,676.516479 
	C734.573547,677.218079 733.434204,678.703552 732.842041,678.709473 
	C722.366882,678.813354 711.890076,678.743896 701.231323,678.364380 
z"/>
<path fill="#2155C0" opacity="1.000000" stroke="none" 
	d="
M732.708191,664.113525 
	C722.543945,664.365601 712.320679,664.204651 701.642334,664.057495 
	C702.450378,663.388306 703.700195,662.144653 704.978882,662.114136 
	C712.782227,661.928162 720.593811,661.934387 728.398315,662.091736 
	C729.825500,662.120483 731.232788,663.138916 732.708191,664.113525 
z"/>
<path fill="#2155C0" opacity="1.000000" stroke="none" 
	d="
M700.326538,673.063721 
	C700.737732,674.354309 700.834717,675.738464 700.957397,677.537109 
	C700.659607,676.353455 700.335999,674.755371 700.326538,673.063721 
z"/>
<path fill="#2155C0" opacity="1.000000" stroke="none" 
	d="
M700.283325,666.072083 
	C700.651672,667.068726 700.718689,668.154724 700.695679,669.642090 
	C700.397766,668.749512 700.189819,667.455444 700.283325,666.072083 
z"/>
<path fill="#154B99" opacity="1.000000" stroke="none" 
	d="
M458.057861,497.362427 
	C458.288910,497.543396 458.485413,497.962738 458.643066,498.619202 
	C458.410583,498.437836 458.216980,498.019318 458.057861,497.362427 
z"/>
<path fill="#FDFEFE" opacity="1.000000" stroke="none" 
	d="
M413.901367,442.413727 
	C413.762909,441.708923 414.059814,441.321228 414.728027,440.989807 
	C414.845184,441.607666 414.590973,442.169250 413.901367,442.413727 
z"/>
<path fill="#0D51D9" opacity="1.000000" stroke="none" 
	d="
M476.017456,306.836243 
	C473.568939,305.911377 473.842224,304.562805 477.853638,301.661774 
	C477.299774,303.287292 476.745911,304.912842 476.017456,306.836243 
z"/>
<path fill="#0D51D9" opacity="1.000000" stroke="none" 
	d="
M473.536530,309.551270 
	C473.480530,309.585602 473.592529,309.516937 473.536530,309.551270 
z"/>
<path fill="#FDFEFE" opacity="1.000000" stroke="none" 
	d="
M727.884033,667.024292 
	C728.789124,669.438110 729.665649,671.837708 729.498840,674.162476 
	C729.446899,674.886292 726.588501,675.878174 724.985107,675.937134 
	C719.163452,676.151062 713.325928,675.905151 707.500732,676.064209 
	C703.925842,676.161804 702.921387,674.508667 702.912842,671.205750 
	C702.904114,667.826294 703.622253,665.705872 707.597229,665.965332 
	C714.209717,666.396912 720.833740,666.651917 727.884033,667.024292 
z"/>
</svg>